<?xml version="1.0" encoding="UTF-8"?>
<!DOCTYPE svg PUBLIC "-//W3C//DTD SVG 1.1//EN" "http://www.w3.org/Graphics/SVG/1.1/DTD/svg11.dtd">
<svg xmlns="http://www.w3.org/2000/svg" version="1.1" width="2000px" height="2000px" style="shape-rendering:geometricPrecision; text-rendering:geometricPrecision; image-rendering:optimizeQuality; fill-rule:evenodd; clip-rule:evenodd" xmlns:xlink="http://www.w3.org/1999/xlink">
<g><path style="opacity:1" fill="#111211" d="M 958.5,-0.5 C 985.833,-0.5 1013.17,-0.5 1040.5,-0.5C 1288.77,13.6914 1503.77,104.525 1685.5,272C 1877.41,457.713 1982.08,684.546 1999.5,952.5C 1999.5,983.833 1999.5,1015.17 1999.5,1046.5C 1983.59,1301.45 1887.26,1520.11 1710.5,1702.5C 1553.77,1859.04 1365.1,1954.54 1144.5,1989C 1111.76,1993.24 1079.09,1996.74 1046.5,1999.5C 1015.17,1999.5 983.833,1999.5 952.5,1999.5C 684.541,1982.08 457.708,1877.41 272,1685.5C 104.569,1503.85 13.7353,1288.85 -0.5,1040.5C -0.5,1013.17 -0.5,985.833 -0.5,958.5C 15.5419,689.312 119.542,461.146 311.5,274C 493.53,105.373 709.196,13.8735 958.5,-0.5 Z M 984.5,1.5 C 1245.97,1.22909 1473.97,87.0624 1668.5,259C 1856.37,431.722 1964.37,646.055 1992.5,902C 2015.17,1169.25 1945,1408.42 1782,1619.5C 1624.54,1813.55 1422.37,1934.38 1175.5,1982C 918.413,2024.38 679.746,1976.72 459.5,1839C 258.083,1706.48 120.25,1524.98 46,1294.5C -19.5019,1073.22 -11.8352,854.554 69,638.5C 150.822,434.035 284.322,272.535 469.5,154C 627.173,56.3914 798.84,5.55808 984.5,1.5 Z"/></g>
<g><path style="opacity:1" fill="#1a388e" d="M 976.5,71.5 C 1225.95,69.2265 1442.95,150.726 1627.5,316C 1814.84,492.248 1914.67,709.748 1927,968.5C 1931.64,1245.61 1835.47,1480.44 1638.5,1673C 1443.73,1852.73 1213.06,1937.06 946.5,1926C 691.313,1907.95 478.146,1805.12 307,1617.5C 147.344,1434.61 69.0108,1220.95 72,976.5C 80.3852,742.843 162.719,540.176 319,368.5C 474.3,204.095 664.8,107.261 890.5,78C 919.243,74.7627 947.91,72.596 976.5,71.5 Z"/></g>
<g><path style="opacity:1" fill="#f9f9f9" d="M 960.5,106.5 C 1203.11,99.7366 1415.11,175.57 1596.5,334C 1765.59,489.006 1863.09,681.172 1889,910.5C 1908.82,1140.6 1851.16,1348.6 1716,1534.5C 1565.5,1730.4 1367.33,1847.23 1121.5,1885C 856.845,1916.82 622.512,1848.15 418.5,1679C 250.249,1532.05 149.083,1347.55 115,1125.5C 82.8651,872.921 143.865,646.255 298,445.5C 434.775,275.814 610.275,168.314 824.5,123C 869.571,114.129 914.904,108.629 960.5,106.5 Z"/></g>
<g><path style="opacity:1" fill="#21398f" d="M 1013.5,197.5 C 1016.83,197.5 1020.17,197.5 1023.5,197.5C 1022.31,217.179 1020.98,236.845 1019.5,256.5C 1028.83,256.922 1038.16,257.255 1047.5,257.5C 1048.79,238.497 1050.13,219.497 1051.5,200.5C 1057.86,200.476 1064.19,200.81 1070.5,201.5C 1069.83,220.887 1068.5,240.22 1066.5,259.5C 1069.17,259.5 1071.83,259.5 1074.5,259.5C 1073.48,271.143 1072.81,282.809 1072.5,294.5C 1067.17,294.5 1061.83,294.5 1056.5,294.5C 1056.39,287.804 1056.72,281.137 1057.5,274.5C 1037.83,273.222 1018.16,271.889 998.5,270.5C 1000.17,247.174 1001.83,223.841 1003.5,200.5C 1004.4,199.791 1004.74,198.791 1004.5,197.5C 1007.5,197.5 1010.5,197.5 1013.5,197.5 Z"/></g>
<g><path style="opacity:1" fill="#20388f" d="M 906.5,211.5 C 906.5,208.5 906.5,205.5 906.5,202.5C 909.385,202.806 912.052,202.473 914.5,201.5C 918.034,200.283 921.534,200.283 925,201.5C 925.725,216.204 926.892,230.871 928.5,245.5C 936.799,230.039 945.299,214.706 954,199.5C 960.677,197.753 967.51,197.087 974.5,197.5C 975.945,221.845 977.612,246.178 979.5,270.5C 973.171,270.9 966.838,271.233 960.5,271.5C 959.461,256.138 958.128,240.804 956.5,225.5C 947.823,241.523 939.156,257.523 930.5,273.5C 924.144,274.204 917.81,274.87 911.5,275.5C 909.999,254.15 908.332,232.816 906.5,211.5 Z"/></g>
<g><path style="opacity:1" fill="#9ea1d0" d="M 1013.5,197.5 C 1010.5,197.5 1007.5,197.5 1004.5,197.5C 1004.74,198.791 1004.4,199.791 1003.5,200.5C 1003.5,199.167 1003.5,197.833 1003.5,196.5C 1007.04,196.187 1010.38,196.521 1013.5,197.5 Z"/></g>
<g><path style="opacity:1" fill="#7e82bc" d="M 914.5,201.5 C 912.052,202.473 909.385,202.806 906.5,202.5C 906.5,205.5 906.5,208.5 906.5,211.5C 905.521,208.375 905.187,205.042 905.5,201.5C 908.5,201.5 911.5,201.5 914.5,201.5 Z"/></g>
<g><path style="opacity:1" fill="#20388f" d="M 1098.5,204.5 C 1104.86,205.393 1111.19,206.393 1117.5,207.5C 1115.66,219.881 1113.49,232.214 1111,244.5C 1110.33,246.833 1110.33,249.167 1111,251.5C 1122.86,238.974 1134.69,226.474 1146.5,214C 1153.23,214.065 1159.9,214.898 1166.5,216.5C 1162.28,240.18 1157.94,263.847 1153.5,287.5C 1148.17,288.007 1142.83,287.507 1137.5,286C 1136.38,285.161 1135.71,283.994 1135.5,282.5C 1138,268.497 1140.17,254.497 1142,240.5C 1129.83,253.333 1117.67,266.167 1105.5,279C 1099.19,279.194 1093.02,278.36 1087,276.5C 1090.82,252.536 1094.65,228.536 1098.5,204.5 Z"/></g>
<g><path style="opacity:1" fill="#20388f" d="M 873.5,205.5 C 875.451,205.227 876.951,205.893 878,207.5C 881.307,225.489 884.474,243.489 887.5,261.5C 890.249,261.726 892.916,261.393 895.5,260.5C 898.245,272.052 900.245,283.719 901.5,295.5C 896.227,296.601 890.894,297.267 885.5,297.5C 885.197,291.517 884.197,285.684 882.5,280C 864.032,282.078 845.698,285.245 827.5,289.5C 829.599,295.741 830.266,302.074 829.5,308.5C 824.585,309.726 819.585,310.393 814.5,310.5C 813.223,298.78 811.556,287.113 809.5,275.5C 812.545,275.658 815.379,274.991 818,273.5C 821.035,264.422 822.535,255.089 822.5,245.5C 821.718,235.476 820.718,225.476 819.5,215.5C 837.729,212.769 855.729,209.435 873.5,205.5 Z"/></g>
<g><path style="opacity:1" fill="#f6f6f8" d="M 858.5,224.5 C 859.675,224.281 860.675,224.614 861.5,225.5C 864.088,238.108 866.421,250.774 868.5,263.5C 868.182,264.647 867.516,265.481 866.5,266C 856.546,267.373 846.712,269.206 837,271.5C 838.919,263.889 839.752,256.056 839.5,248C 839.351,241.483 839.018,234.983 838.5,228.5C 845.412,227.784 852.079,226.451 858.5,224.5 Z"/></g>
<g><path style="opacity:1" fill="#20388e" d="M 1191.5,223.5 C 1198.07,224.727 1204.41,226.727 1210.5,229.5C 1207.58,238.004 1205.58,246.504 1204.5,255C 1213,257.96 1221.67,259.96 1230.5,261C 1233.09,252.786 1235.76,244.62 1238.5,236.5C 1244.42,238.481 1250.42,240.148 1256.5,241.5C 1250.62,265.353 1243.95,289.019 1236.5,312.5C 1231.15,311.105 1225.81,309.605 1220.5,308C 1219.57,307.612 1218.91,306.945 1218.5,306C 1220.77,296.523 1223.44,287.189 1226.5,278C 1217.23,275.181 1207.9,272.681 1198.5,270.5C 1196.73,280.615 1193.89,290.282 1190,299.5C 1184.65,297.496 1179.15,295.996 1173.5,295C 1172.94,294.275 1172.61,293.442 1172.5,292.5C 1179.04,269.559 1185.37,246.559 1191.5,223.5 Z"/></g>
<g><path style="opacity:1" fill="#20388e" d="M 754.5,230.5 C 770.867,227.938 783.367,233.604 792,247.5C 794.443,252.72 796.61,258.053 798.5,263.5C 783.787,268.764 768.787,273.264 753.5,277C 752.692,277.308 752.025,277.808 751.5,278.5C 755.425,289.796 763.091,293.629 774.5,290C 778.801,287.012 780.801,282.845 780.5,277.5C 786.804,276.587 793.137,275.92 799.5,275.5C 799.672,288.644 793.672,297.811 781.5,303C 755.182,313.004 738.015,304.504 730,277.5C 724.516,254.46 732.683,238.793 754.5,230.5 Z"/></g>
<g><path style="opacity:1" fill="#f5f5f8" d="M 756.5,245.5 C 766.403,244.064 773.07,248.064 776.5,257.5C 766.929,260.689 757.263,263.689 747.5,266.5C 745.387,257.08 748.387,250.08 756.5,245.5 Z"/></g>
<g><path style="opacity:1" fill="#1f388e" d="M 693.5,251.5 C 695.144,251.286 696.644,251.62 698,252.5C 707.5,274.167 717,295.833 726.5,317.5C 721.721,319.973 716.888,322.306 712,324.5C 705.393,310.953 699.06,297.287 693,283.5C 693.293,299.849 694.126,316.182 695.5,332.5C 689.983,334.106 684.65,335.94 679.5,338C 667.957,326.292 656.623,314.458 645.5,302.5C 645.167,302.667 644.833,302.833 644.5,303C 650.965,316.763 657.298,330.597 663.5,344.5C 663.167,345.167 662.833,345.833 662.5,346.5C 658.016,348.243 653.683,350.243 649.5,352.5C 638.854,330.701 628.854,308.534 619.5,286C 626.397,282.143 633.563,278.643 641,275.5C 652.962,288.297 665.129,300.964 677.5,313.5C 677.833,312.167 678.167,310.833 678.5,309.5C 676.617,292.884 675.617,276.217 675.5,259.5C 681.794,257.35 687.794,254.684 693.5,251.5 Z"/></g>
<g><path style="opacity:1" fill="#21388e" d="M 1290.5,257.5 C 1306.25,257.791 1319.75,263.458 1331,274.5C 1335.29,281.598 1335.63,288.931 1332,296.5C 1327.61,306.289 1322.94,315.955 1318,325.5C 1315.4,331.904 1313.9,338.571 1313.5,345.5C 1308.51,342.355 1303.17,339.855 1297.5,338C 1296.17,335.333 1296.17,332.667 1297.5,330C 1283.21,334.017 1271.05,330.517 1261,319.5C 1253.9,305.124 1257.4,294.291 1271.5,287C 1275.5,286.333 1279.5,286.333 1283.5,287C 1292.47,288.83 1301.47,290.663 1310.5,292.5C 1311.44,292.392 1312.28,292.059 1313,291.5C 1315.62,286.271 1314.79,281.771 1310.5,278C 1305.94,274.811 1300.94,273.478 1295.5,274C 1293.76,275.62 1291.93,277.12 1290,278.5C 1284.9,275.367 1280.07,271.867 1275.5,268C 1279.55,262.988 1284.55,259.488 1290.5,257.5 Z"/></g>
<g><path style="opacity:1" fill="#f7f7f9" d="M 1281.5,300.5 C 1290.34,300.668 1299.01,302.001 1307.5,304.5C 1305.51,309.659 1302.51,314.159 1298.5,318C 1293.15,319.929 1287.82,319.929 1282.5,318C 1276.31,312.389 1275.98,306.556 1281.5,300.5 Z"/></g>
<g><path style="opacity:1" fill="#1f388e" d="M 1404.5,317.5 C 1426.91,317.112 1441.75,327.445 1449,348.5C 1450.83,371.986 1440.66,387.486 1418.5,395C 1400.82,397.411 1386.99,391.244 1377,376.5C 1367.23,354.839 1372.06,337.006 1391.5,323C 1395.72,320.549 1400.05,318.715 1404.5,317.5 Z"/></g>
<g><path style="opacity:1" fill="#1f378e" d="M 551.5,322.5 C 552.675,322.281 553.675,322.614 554.5,323.5C 564.833,338.167 575.167,352.833 585.5,367.5C 586.365,368.583 587.365,368.749 588.5,368C 589.685,366.647 591.019,365.48 592.5,364.5C 599.555,373.555 606.221,382.888 612.5,392.5C 608.817,396.18 604.817,399.514 600.5,402.5C 596.422,397.343 592.588,392.01 589,386.5C 586,388.833 583,391.167 580,393.5C 573.822,385.129 567.655,376.795 561.5,368.5C 553.863,373.478 546.53,378.812 539.5,384.5C 544.797,392.928 550.463,401.095 556.5,409C 551.422,412.955 546.256,416.789 541,420.5C 526.445,400.945 512.279,381.112 498.5,361C 503.578,357.045 508.744,353.211 514,349.5C 518.246,354.991 522.246,360.658 526,366.5C 527.295,368.122 528.795,369.455 530.5,370.5C 537.969,365.592 545.302,360.426 552.5,355C 547.377,347.921 542.377,340.754 537.5,333.5C 542.236,329.814 546.903,326.147 551.5,322.5 Z"/></g>
<g><path style="opacity:1" fill="#f7f7f8" d="M 1407.5,335.5 C 1425.66,334.485 1432.82,342.818 1429,360.5C 1425.36,370.313 1418.53,376.313 1408.5,378.5C 1391.47,375.106 1386.64,365.439 1394,349.5C 1397.36,343.643 1401.86,338.976 1407.5,335.5 Z"/></g>
<g><path style="opacity:1" fill="#23388e" d="M 955.5,341.5 C 1141.69,336.513 1303.69,395.68 1441.5,519C 1573.97,644.478 1645.8,798.978 1657,982.5C 1661.63,1189.39 1589.46,1363.89 1440.5,1506C 1299.08,1631.93 1133.08,1690.26 942.5,1681C 767.668,1666.82 619.834,1596.99 499,1471.5C 367.091,1326.12 307.091,1154.78 319,957.5C 335.926,781.153 409.092,633.32 538.5,514C 657.247,409.098 796.247,351.598 955.5,341.5 Z"/></g>
<g><path style="opacity:1" fill="#f7f7f9" d="M 946.5,353.5 C 1124.29,345.706 1280.96,398.54 1416.5,512C 1551.72,631.039 1627.55,780.872 1644,961.5C 1655.25,1146.48 1600.92,1308.81 1481,1448.5C 1357.83,1583.99 1204.33,1657.83 1020.5,1670C 839.584,1677.04 681.584,1621.04 546.5,1502C 415.295,1380.74 343.128,1230.57 330,1051.5C 321.501,847.773 389.668,674.94 534.5,533C 650.596,425.412 787.929,365.579 946.5,353.5 Z"/></g>
<g><path style="opacity:1" fill="#1e378e" d="M 1478.5,360.5 C 1483.88,362.95 1488.72,366.283 1493,370.5C 1492.08,373.146 1490.58,375.646 1488.5,378C 1513.59,377.42 1525.42,389.586 1524,414.5C 1518.75,430.417 1508.58,441.917 1493.5,449C 1472.32,453.159 1459.49,444.659 1455,423.5C 1447.97,432.358 1441.14,441.358 1434.5,450.5C 1433.64,451.583 1432.64,451.749 1431.5,451C 1427.12,446.952 1422.45,443.285 1417.5,440C 1438.05,413.624 1458.38,387.124 1478.5,360.5 Z"/></g>
<g><path style="opacity:1" fill="#1f378e" d="M 477.5,376.5 C 494.286,394.181 510.286,412.681 525.5,432C 521.343,436.653 516.676,440.819 511.5,444.5C 504.824,437.656 498.49,430.489 492.5,423C 491.5,422.333 490.5,422.333 489.5,423C 487.291,424.873 485.458,427.04 484,429.5C 484.197,441.871 484.864,454.205 486,466.5C 480.926,470.952 475.759,475.286 470.5,479.5C 467.536,467.041 465.869,454.374 465.5,441.5C 451.704,446.694 441.871,442.361 436,428.5C 434.18,420.89 435.846,414.223 441,408.5C 453.064,397.596 465.23,386.929 477.5,376.5 Z"/></g>
<g><path style="opacity:1" fill="#f7f6f8" d="M 1485.5,389.5 C 1498.68,388.623 1505.18,394.623 1505,407.5C 1501.72,419.108 1494.56,427.275 1483.5,432C 1474.53,433.041 1468.7,429.208 1466,420.5C 1466.55,406.442 1473.05,396.109 1485.5,389.5 Z"/></g>
<g><path style="opacity:1" fill="#1b388f" d="M 962.5,389.5 C 982.765,389.085 1002.93,389.752 1023,391.5C 1034.42,414.027 1042.76,437.693 1048,462.5C 1055.69,496.54 1061.52,530.873 1065.5,565.5C 1016.52,567.156 967.516,567.823 918.5,567.5C 922.203,533.882 927.703,500.548 935,467.5C 938.588,451.651 942.922,435.984 948,420.5C 951.977,409.719 956.811,399.386 962.5,389.5 Z"/></g>
<g><path style="opacity:1" fill="#1b388e" d="M 943.5,390.5 C 947.846,390.334 952.179,390.501 956.5,391C 946.629,410.612 939.129,431.112 934,452.5C 925.636,490.227 918.803,528.227 913.5,566.5C 872.83,565.024 832.497,560.524 792.5,553C 788.343,552.271 784.343,551.104 780.5,549.5C 799.29,506.549 823.124,466.882 852,430.5C 862.24,418.258 873.74,407.425 886.5,398C 905.521,394.582 924.521,392.082 943.5,390.5 Z"/></g>
<g><path style="opacity:1" fill="#1a378e" d="M 1028.5,392.5 C 1029.45,391.848 1030.62,391.514 1032,391.5C 1054.98,393.08 1077.82,395.914 1100.5,400C 1114.31,411.14 1126.81,423.64 1138,437.5C 1164.99,472.377 1186.83,510.377 1203.5,551.5C 1160.57,558.009 1117.4,562.342 1074,564.5C 1072.83,564.167 1071.67,563.833 1070.5,563.5C 1064.1,516.492 1054.6,470.159 1042,424.5C 1038.28,413.398 1033.78,402.731 1028.5,392.5 Z"/></g>
<g><path style="opacity:1" fill="#f4f5f7" d="M 470.5,398.5 C 475.44,402.446 479.773,407.112 483.5,412.5C 478.248,418.252 472.248,423.085 465.5,427C 457.667,427.167 453.833,423.333 454,415.5C 459.031,409.303 464.531,403.636 470.5,398.5 Z"/></g>
<g><path style="opacity:1" fill="#1b388e" d="M 874.5,399.5 C 875.239,399.369 875.906,399.536 876.5,400C 843.188,430.979 816.354,466.813 796,507.5C 789.009,521.819 781.843,535.819 774.5,549.5C 736.393,542.74 699.393,532.24 663.5,518C 696.028,479.118 734.694,448.118 779.5,425C 810.647,414.064 842.314,405.564 874.5,399.5 Z"/></g>
<g><path style="opacity:1" fill="#1c378e" d="M 1109.5,402.5 C 1151.62,410.365 1192.62,422.865 1232.5,440C 1266.69,462.677 1297.02,489.844 1323.5,521.5C 1316.88,524.149 1310.22,526.482 1303.5,528.5C 1300.79,510.283 1290.46,498.783 1272.5,494C 1258.65,490.607 1246.99,494.107 1237.5,504.5C 1227.41,519.099 1217.91,534.099 1209,549.5C 1195.06,518.95 1179.06,489.616 1161,461.5C 1153,450.833 1145,440.167 1137,429.5C 1128.63,419.628 1119.46,410.628 1109.5,402.5 Z"/></g>
<g><path style="opacity:1" fill="#1f378e" d="M 1546.5,416.5 C 1552.07,420.567 1557.24,425.234 1562,430.5C 1572.68,441.683 1583.18,453.016 1593.5,464.5C 1590.46,468.544 1586.79,471.877 1582.5,474.5C 1576.81,469.473 1571.47,464.14 1566.5,458.5C 1552.5,471.5 1538.5,484.5 1524.5,497.5C 1519.64,493.47 1515.3,488.97 1511.5,484C 1524.8,470.371 1538.46,457.038 1552.5,444C 1546.8,438.635 1541.47,432.969 1536.5,427C 1540.04,423.631 1543.37,420.131 1546.5,416.5 Z"/></g>
<g><path style="opacity:1" fill="#1f388e" d="M 408.5,437.5 C 409.552,437.351 410.552,437.517 411.5,438C 428.705,454.373 445.705,470.873 462.5,487.5C 458.5,491.833 454.5,496.167 450.5,500.5C 439.183,490.351 428.016,480.017 417,469.5C 420.817,486.572 424.65,503.738 428.5,521C 428.333,522.167 428.167,523.333 428,524.5C 424,528.5 420,532.5 416,536.5C 398.321,519.654 380.821,502.654 363.5,485.5C 367.485,481.015 371.651,476.682 376,472.5C 387.011,482.679 397.845,493.012 408.5,503.5C 408.833,503.333 409.167,503.167 409.5,503C 404.906,486.201 400.906,469.201 397.5,452C 398.201,449.62 399.367,447.453 401,445.5C 404.184,443.456 406.684,440.79 408.5,437.5 Z"/></g>
<g><path style="opacity:1" fill="#22388e" d="M 743.5,438.5 C 745.379,438.393 745.712,438.893 744.5,440C 712.055,461.087 683.388,486.587 658.5,516.5C 648.95,512.392 639.617,507.725 630.5,502.5C 665.891,477.3 703.557,455.967 743.5,438.5 Z"/></g>
<g><path style="opacity:1" fill="#23378e" d="M 1255.5,451.5 C 1290.21,466.76 1322.87,486.094 1353.5,509.5C 1347.24,512.422 1340.91,515.256 1334.5,518C 1332.25,519.15 1329.91,519.484 1327.5,519C 1306.2,493.531 1282.2,471.031 1255.5,451.5 Z"/></g>
<g><path style="opacity:1" fill="#20388e" d="M 1597.5,483.5 C 1609.54,482.938 1619.04,487.604 1626,497.5C 1629.83,502.497 1633.17,507.83 1636,513.5C 1636.67,518.5 1636.67,523.5 1636,528.5C 1633.2,532.299 1630.04,535.799 1626.5,539C 1617.32,545.423 1608.32,552.089 1599.5,559C 1595.15,562.867 1591.65,567.367 1589,572.5C 1585.36,567.358 1581.52,562.358 1577.5,557.5C 1578.44,555.228 1579.77,553.228 1581.5,551.5C 1568.89,548.727 1560.06,541.394 1555,529.5C 1552.09,516.149 1556.92,506.982 1569.5,502C 1577.81,500.489 1585.14,502.489 1591.5,508C 1597.54,513.709 1603.87,519.043 1610.5,524C 1615.41,523.758 1618.08,521.092 1618.5,516C 1616.38,505.356 1610.04,500.856 1599.5,502.5C 1596.12,497.579 1593.12,492.412 1590.5,487C 1592.71,485.384 1595.05,484.217 1597.5,483.5 Z"/></g>
<g><path style="opacity:1" fill="#1f378e" d="M 325.5,486.5 C 330.052,488.713 334.052,491.713 337.5,495.5C 333.356,500.112 331.856,505.446 333,511.5C 337.333,518.833 341.667,526.167 346,533.5C 346.333,536.5 346.667,539.5 347,542.5C 351.192,539.548 355.858,538.214 361,538.5C 376.988,539.804 392.822,542.137 408.5,545.5C 404.536,551.929 400.202,558.096 395.5,564C 380.796,562.429 366.13,560.262 351.5,557.5C 347.704,557.398 344.704,558.898 342.5,562C 354.089,570.378 365.589,578.878 377,587.5C 377.315,588.908 376.982,590.241 376,591.5C 372.781,595.052 369.948,598.885 367.5,603C 366.5,603.667 365.5,603.667 364.5,603C 353.027,595.027 341.694,586.86 330.5,578.5C 329.063,580.021 328.396,581.855 328.5,584C 328.891,586.953 329.725,589.787 331,592.5C 337.182,604.198 343.348,615.865 349.5,627.5C 344.833,633.833 340.167,640.167 335.5,646.5C 328.396,633.292 321.563,619.958 315,606.5C 312.51,600.782 312.01,594.948 313.5,589C 310.306,589.769 306.973,590.269 303.5,590.5C 296.818,589.196 290.152,587.696 283.5,586C 280.5,585.333 277.5,585.333 274.5,586C 270.972,588.533 267.806,591.366 265,594.5C 260.896,592.067 257.063,589.233 253.5,586C 257.884,578.616 263.884,572.949 271.5,569C 284.417,568.986 297.084,570.819 309.5,574.5C 312.684,574.491 315.517,573.491 318,571.5C 318.507,570.004 318.007,568.837 316.5,568C 306.088,560.377 295.588,552.877 285,545.5C 287.566,539.92 291.066,534.753 295.5,530C 296.5,529.333 297.5,529.333 298.5,530C 308.833,537.667 319.167,545.333 329.5,553C 330.449,553.617 331.282,553.451 332,552.5C 332.667,549.5 332.667,546.5 332,543.5C 328.065,535.906 323.732,528.573 319,521.5C 314.878,513.963 314.544,506.296 318,498.5C 320.261,494.304 322.761,490.304 325.5,486.5 Z"/></g>
<g><path style="opacity:1" fill="#1b378e" d="M 624.5,505.5 C 634.77,510.3 645.103,515.133 655.5,520C 615.891,569.011 583.225,622.511 557.5,680.5C 531.634,672.1 505.967,663.1 480.5,653.5C 479.479,652.998 479.312,652.332 480,651.5C 520.655,595.345 568.822,546.679 624.5,505.5 Z"/></g>
<g><path style="opacity:1" fill="#1b378e" d="M 1357.5,512.5 C 1385.31,532.476 1411.15,554.809 1435,579.5C 1457.06,602.545 1477.22,627.045 1495.5,653C 1473.4,662.255 1451.07,670.922 1428.5,679C 1427.22,679.684 1426.05,679.517 1425,678.5C 1401,622.787 1370.16,571.453 1332.5,524.5C 1340.76,520.351 1349.09,516.351 1357.5,512.5 Z"/></g>
<g><path style="opacity:1" fill="#f6f6f8" d="M 1577.5,518.5 C 1579.86,518.337 1582.19,518.503 1584.5,519C 1590.5,523.667 1596.5,528.333 1602.5,533C 1599.44,535.723 1596.11,538.056 1592.5,540C 1579.17,542.282 1572.67,536.782 1573,523.5C 1574.37,521.638 1575.87,519.972 1577.5,518.5 Z"/></g>
<g><path style="opacity:1" fill="#1a388e" d="M 659.5,522.5 C 676.31,528.492 693.31,533.992 710.5,539C 731.494,544.278 752.494,549.444 773.5,554.5C 751.018,607.614 733.351,662.28 720.5,718.5C 671.412,710.978 623.079,700.144 575.5,686C 570.775,684.823 566.441,682.989 562.5,680.5C 587.808,623.158 620.141,570.491 659.5,522.5 Z"/></g>
<g><path style="opacity:1" fill="#1a378e" d="M 1324.5,525.5 C 1325.55,525.351 1326.55,525.517 1327.5,526C 1365.45,573.194 1396.78,624.694 1421.5,680.5C 1370.19,698.719 1317.53,711.386 1263.5,718.5C 1257.3,693.031 1250.8,667.697 1244,642.5C 1263.5,611.499 1282.5,580.166 1301,548.5C 1302.44,543.134 1303.94,537.801 1305.5,532.5C 1312.15,530.731 1318.49,528.397 1324.5,525.5 Z"/></g>
<g><path style="opacity:1" fill="#1f378e" d="M 1663.5,550.5 C 1665.78,551.957 1667.62,553.957 1669,556.5C 1679.17,572.833 1689.33,589.167 1699.5,605.5C 1678.9,618.381 1658.4,631.381 1638,644.5C 1633.34,639.5 1630.01,633.834 1628,627.5C 1643.97,617.698 1659.8,607.698 1675.5,597.5C 1671.32,589.792 1666.65,582.458 1661.5,575.5C 1650.5,582.333 1639.5,589.167 1628.5,596C 1618.85,601.758 1610.35,600.591 1603,592.5C 1600.25,587.992 1597.75,583.326 1595.5,578.5C 1598.6,575.112 1602.26,572.445 1606.5,570.5C 1608.94,573.202 1611.28,576.035 1613.5,579C 1614.83,579.667 1616.17,579.667 1617.5,579C 1633.43,570.214 1648.77,560.714 1663.5,550.5 Z"/></g>
<g><path style="opacity:1" fill="#1d388e" d="M 777.5,555.5 C 807.06,560.323 836.726,564.49 866.5,568C 881.789,569.696 897.122,570.529 912.5,570.5C 912.768,573.119 912.435,575.619 911.5,578C 888.001,580.853 864.668,584.519 841.5,589C 830.285,591.775 819.951,596.442 810.5,603C 797.63,614.866 787.464,628.7 780,644.5C 766.576,670.336 754.576,696.67 744,723.5C 737.562,722.08 731.062,721.08 724.5,720.5C 737.392,663.918 755.059,608.918 777.5,555.5 Z"/></g>
<g><path style="opacity:1" fill="#1c388f" d="M 1199.5,555.5 C 1201.6,555.201 1203.6,555.534 1205.5,556.5C 1185.73,591.704 1166.23,627.038 1147,662.5C 1146.28,663.059 1145.44,663.392 1144.5,663.5C 1123.57,658.572 1102.4,655.572 1081,654.5C 1078.16,625.78 1074.99,597.113 1071.5,568.5C 1114.58,566.786 1157.24,562.453 1199.5,555.5 Z"/></g>
<g><path style="opacity:1" fill="#1b388e" d="M 1057.5,569.5 C 1061.03,568.989 1064.2,569.656 1067,571.5C 1070.94,599.416 1074.1,627.416 1076.5,655.5C 1017.03,653.691 967.533,674.691 928,718.5C 923.336,724.491 919.17,730.824 915.5,737.5C 910.544,738.494 905.544,738.827 900.5,738.5C 902.746,701.041 906.246,663.707 911,626.5C 926.316,610.52 939.316,592.853 950,573.5C 985.935,572.286 1021.77,570.953 1057.5,569.5 Z"/></g>
<g><path style="opacity:1" fill="#333b8f" d="M 921.5,576.5 C 920.167,576.5 918.833,576.5 917.5,576.5C 917.5,575.5 917.5,574.5 917.5,573.5C 920.938,572.177 924.771,571.51 929,571.5C 932.833,571.667 936.667,571.833 940.5,572C 934.469,574.564 928.135,576.064 921.5,576.5 Z"/></g>
<g><path style="opacity:1" fill="#7075b3" d="M 917.5,573.5 C 917.5,574.5 917.5,575.5 917.5,576.5C 918.833,576.5 920.167,576.5 921.5,576.5C 920.081,577.451 918.415,577.784 916.5,577.5C 916.232,575.901 916.566,574.568 917.5,573.5 Z"/></g>
<g><path style="opacity:1" fill="#1d378e" d="M 896.5,731.5 C 895.539,733.265 895.205,735.265 895.5,737.5C 890.833,737.5 886.167,737.5 881.5,737.5C 873.51,736.977 865.51,736.644 857.5,736.5C 855.5,735.833 853.5,735.167 851.5,734.5C 854.156,729.19 857.323,724.19 861,719.5C 868,713.5 875,707.5 882,701.5C 882.783,699.567 882.283,698.067 880.5,697C 857.143,696.125 833.81,696.458 810.5,698C 793.079,699.688 777.579,705.855 764,716.5C 773.932,692.908 791.098,676.742 815.5,668C 840.337,660.721 864.671,652.054 888.5,642C 894.004,638.749 899.338,635.249 904.5,631.5C 904.833,631.833 905.167,632.167 905.5,632.5C 901.636,665.399 898.636,698.399 896.5,731.5 Z"/></g>
<g><path style="opacity:1" fill="#20388e" d="M 1713.5,631.5 C 1717.66,636.817 1720.49,642.817 1722,649.5C 1712.87,653.646 1704.04,658.146 1695.5,663C 1700.58,673.254 1705.08,683.754 1709,694.5C 1709.38,714.118 1699.88,722.285 1680.5,719C 1676,715.833 1672.17,712 1669,707.5C 1663.35,695.531 1657.68,683.531 1652,671.5C 1650.36,668.258 1649.36,664.924 1649,661.5C 1670.6,651.613 1692.1,641.613 1713.5,631.5 Z"/></g>
<g><path style="opacity:1" fill="#20388e" d="M 1239.5,649.5 C 1240.56,650.6 1241.39,651.934 1242,653.5C 1248.93,675.57 1254.77,697.903 1259.5,720.5C 1258.45,720.649 1257.45,720.483 1256.5,720C 1243.91,708.047 1230.25,697.547 1215.5,688.5C 1223.53,675.483 1231.53,662.483 1239.5,649.5 Z"/></g>
<g><path style="opacity:1" fill="#1a388e" d="M 475.5,657.5 C 498.629,664.821 521.629,672.654 544.5,681C 548.112,682.15 551.778,682.983 555.5,683.5C 549.113,700.486 542.613,717.486 536,734.5C 517.556,785.569 504.389,837.903 496.5,891.5C 463.123,882.763 430.457,871.93 398.5,859C 393.838,857.293 389.505,855.126 385.5,852.5C 404.499,782.184 434.499,717.184 475.5,657.5 Z"/></g>
<g><path style="opacity:1" fill="#1a378e" d="M 1495.5,657.5 C 1497.9,657.393 1499.74,658.393 1501,660.5C 1541.23,719.324 1570.4,783.324 1588.5,852.5C 1555.61,866.276 1522.28,878.943 1488.5,890.5C 1477.29,819.559 1457.29,751.226 1428.5,685.5C 1428.61,684.558 1428.94,683.725 1429.5,683C 1451.94,675.358 1473.94,666.858 1495.5,657.5 Z"/></g>
<g><path style="opacity:1" fill="#f6f6f8" d="M 1681.5,667.5 C 1682.82,667.33 1683.99,667.663 1685,668.5C 1688.98,675.789 1691.82,683.455 1693.5,691.5C 1692.97,698.881 1688.97,701.715 1681.5,700C 1680,698.5 1678.5,697 1677,695.5C 1673.96,688.591 1670.8,681.758 1667.5,675C 1672.36,672.74 1677.02,670.24 1681.5,667.5 Z"/></g>
<g><path style="opacity:1" fill="#20388e" d="M 246.5,667.5 C 264.177,674.285 281.844,681.285 299.5,688.5C 301.196,686.454 302.529,684.121 303.5,681.5C 314.387,685.732 325.054,690.232 335.5,695C 334.283,697.368 333.449,699.868 333,702.5C 332.205,705.115 330.705,707.115 328.5,708.5C 323.378,706.403 318.212,704.403 313,702.5C 310.893,705.629 309.059,708.962 307.5,712.5C 298.265,708.924 289.099,705.257 280,701.5C 276.051,709.607 272.551,717.94 269.5,726.5C 270.09,727.799 271.09,728.632 272.5,729C 281.071,732.021 289.404,735.521 297.5,739.5C 295.583,745.616 292.916,751.283 289.5,756.5C 267.595,747.918 245.595,739.418 223.5,731C 222.978,730.439 222.645,729.772 222.5,729C 224.938,723.631 226.938,718.131 228.5,712.5C 237.027,714.898 245.36,717.898 253.5,721.5C 257.615,713.392 261.282,705.058 264.5,696.5C 256.296,692.565 247.962,688.898 239.5,685.5C 242.232,679.634 244.566,673.634 246.5,667.5 Z"/></g>
<g><path style="opacity:1" fill="#1b388f" d="M 559.5,686.5 C 611.798,701.76 664.798,714.094 718.5,723.5C 714.221,741.393 710.388,759.393 707,777.5C 702.657,788.865 699.324,800.531 697,812.5C 695.778,840.287 693.111,867.954 689,895.5C 688.057,906.482 687.557,917.482 687.5,928.5C 682.074,928.487 676.74,927.82 671.5,926.5C 671.167,923.833 670.833,921.167 670.5,918.5C 672.514,894.534 673.347,870.534 673,846.5C 670.662,827.81 666.662,809.477 661,791.5C 659.114,778.237 658.114,764.904 658,751.5C 657.481,750.484 656.647,749.818 655.5,749.5C 651.25,752.243 647.417,755.576 644,759.5C 626.501,780.298 614.501,803.965 608,830.5C 603.548,859.731 605.714,888.398 614.5,916.5C 613.833,916.833 613.167,917.167 612.5,917.5C 574.787,911.07 537.454,903.07 500.5,893.5C 507.432,844.77 518.932,797.104 535,750.5C 542.879,729.025 551.046,707.692 559.5,686.5 Z"/></g>
<g><path style="opacity:1" fill="#1a388f" d="M 1421.5,685.5 C 1422.5,685.414 1423.33,685.748 1424,686.5C 1452.11,751.165 1471.94,818.332 1483.5,888C 1483.44,889.436 1483.11,890.769 1482.5,892C 1441.89,904.989 1400.56,914.156 1358.5,919.5C 1348.28,846.401 1317.78,783.401 1267,730.5C 1266.34,728.187 1265.84,725.854 1265.5,723.5C 1318.82,715.511 1370.82,702.844 1421.5,685.5 Z"/></g>
<g><path style="opacity:1" fill="#20378e" d="M 1746.5,707.5 C 1747.82,707.33 1748.99,707.663 1750,708.5C 1752.72,713.947 1754.89,719.614 1756.5,725.5C 1734.67,734.994 1712.84,744.661 1691,754.5C 1687.67,749.171 1684.84,743.504 1682.5,737.5C 1703.89,727.468 1725.23,717.468 1746.5,707.5 Z"/></g>
<g><path style="opacity:1" fill="#db7325" d="M 1065.5,723.5 C 1071.18,723.334 1076.84,723.501 1082.5,724C 1083.46,728.066 1083.8,732.233 1083.5,736.5C 1081.17,736.5 1078.83,736.5 1076.5,736.5C 1077.6,734.908 1076.93,734.075 1074.5,734C 1070.89,730.902 1067.89,727.402 1065.5,723.5 Z"/></g>
<g><path style="opacity:1" fill="#ec7c02" d="M 1065.5,723.5 C 1065.5,723.167 1065.5,722.833 1065.5,722.5C 1114.33,721.167 1158.33,735 1197.5,764C 1239.69,796.553 1268.36,838.387 1283.5,889.5C 1282.88,889.917 1282.54,890.584 1282.5,891.5C 1284.48,897.067 1285.64,902.734 1286,908.5C 1226.26,853.023 1166.76,797.19 1107.5,741C 1105.53,740.505 1103.53,740.338 1101.5,740.5C 1098.5,740.5 1095.5,740.5 1092.5,740.5C 1091.17,740.5 1089.83,740.5 1088.5,740.5C 1088.5,741.833 1088.5,743.167 1088.5,744.5C 1087.78,744.918 1087.28,745.584 1087,746.5C 1086.16,744.389 1085.32,742.389 1084.5,740.5C 1082.17,740.5 1079.83,740.5 1077.5,740.5C 1076.4,739.395 1075.73,738.062 1075.5,736.5C 1075.83,736.5 1076.17,736.5 1076.5,736.5C 1078.83,736.5 1081.17,736.5 1083.5,736.5C 1083.8,732.233 1083.46,728.066 1082.5,724C 1076.84,723.501 1071.18,723.334 1065.5,723.5 Z"/></g>
<g><path style="opacity:1" fill="#25388e" d="M 722.5,724.5 C 729.656,725.093 736.656,726.426 743.5,728.5C 737.563,736.607 731.063,744.274 724,751.5C 720.667,756.167 717.333,760.833 714,765.5C 716.823,751.912 719.657,738.245 722.5,724.5 Z"/></g>
<g><path style="opacity:1" fill="#c86c36" d="M 1065.5,722.5 C 1065.5,722.833 1065.5,723.167 1065.5,723.5C 1067.89,727.402 1070.89,730.902 1074.5,734C 1076.93,734.075 1077.6,734.908 1076.5,736.5C 1076.17,736.5 1075.83,736.5 1075.5,736.5C 1061.16,736.989 1046.82,737.656 1032.5,738.5C 1035.31,737.681 1038.31,737.181 1041.5,737C 1037.82,735.163 1035.49,732.33 1034.5,728.5C 1044.38,724.786 1054.71,722.786 1065.5,722.5 Z"/></g>
<g><path style="opacity:1" fill="#b76440" d="M 1034.5,728.5 C 1035.49,732.33 1037.82,735.163 1041.5,737C 1038.31,737.181 1035.31,737.681 1032.5,738.5C 1025.83,738.5 1019.17,738.5 1012.5,738.5C 1019.14,733.833 1026.48,730.499 1034.5,728.5 Z"/></g>
<g><path style="opacity:1" fill="#9a9bcd" d="M 851.5,734.5 C 853.5,735.167 855.5,735.833 857.5,736.5C 855.076,736.808 852.743,736.474 850.5,735.5C 850.624,734.893 850.957,734.56 851.5,734.5 Z"/></g>
<g><path style="opacity:1" fill="#868bc1" d="M 896.5,731.5 C 896.5,733.833 896.5,736.167 896.5,738.5C 891.305,738.821 886.305,738.487 881.5,737.5C 886.167,737.5 890.833,737.5 895.5,737.5C 895.205,735.265 895.539,733.265 896.5,731.5 Z"/></g>
<g><path style="opacity:1" fill="#f69a3e" d="M 1075.5,736.5 C 1075.73,738.062 1076.4,739.395 1077.5,740.5C 1065.33,740.878 1053.33,741.544 1041.5,742.5C 1029.99,742.828 1018.65,742.495 1007.5,741.5C 1009.33,740.752 1011,739.752 1012.5,738.5C 1019.17,738.5 1025.83,738.5 1032.5,738.5C 1046.82,737.656 1061.16,736.989 1075.5,736.5 Z"/></g>
<g><path style="opacity:1" fill="#e1751d" d="M 1092.5,740.5 C 1095.5,740.5 1098.5,740.5 1101.5,740.5C 1101.2,741.15 1100.86,741.817 1100.5,742.5C 1155.08,792.924 1209.08,843.757 1262.5,895C 1271.08,903.416 1280.08,911.249 1289.5,918.5C 1289.44,920.884 1289.78,923.218 1290.5,925.5C 1290.27,926.932 1289.6,927.432 1288.5,927C 1224.96,866.555 1160.96,806.555 1096.5,747C 1094.75,745.001 1093.41,742.835 1092.5,740.5 Z"/></g>
<g><path style="opacity:1" fill="#e77613" d="M 1101.5,740.5 C 1103.53,740.338 1105.53,740.505 1107.5,741C 1166.76,797.19 1226.26,853.023 1286,908.5C 1285.64,902.734 1284.48,897.067 1282.5,891.5C 1282.54,890.584 1282.88,889.917 1283.5,889.5C 1286.71,898.927 1289.04,908.594 1290.5,918.5C 1290.17,918.5 1289.83,918.5 1289.5,918.5C 1280.08,911.249 1271.08,903.416 1262.5,895C 1209.08,843.757 1155.08,792.924 1100.5,742.5C 1100.86,741.817 1101.2,741.15 1101.5,740.5 Z"/></g>
<g><path style="opacity:1" fill="#1b388e" d="M 847.5,740.5 C 863.511,740.917 879.511,741.584 895.5,742.5C 890.232,810.395 887.232,878.395 886.5,946.5C 867.488,945.999 848.488,945.166 829.5,944C 820.033,943.518 810.699,942.351 801.5,940.5C 807.102,925.039 809.935,909.039 810,892.5C 810.333,879.167 810.667,865.833 811,852.5C 812.724,844.328 815.057,836.328 818,828.5C 818.497,826.19 818.663,823.857 818.5,821.5C 767.923,833.737 734.59,864.737 718.5,914.5C 714.015,893.346 714.515,872.346 720,851.5C 726.89,831.277 740.057,816.777 759.5,808C 779.439,802.361 798.106,794.027 815.5,783C 829.459,771.221 840.125,757.054 847.5,740.5 Z"/></g>
<g><path style="opacity:1" fill="#da7625" d="M 1092.5,740.5 C 1093.41,742.835 1094.75,745.001 1096.5,747C 1160.96,806.555 1224.96,866.555 1288.5,927C 1289.6,927.432 1290.27,926.932 1290.5,925.5C 1289.78,923.218 1289.44,920.884 1289.5,918.5C 1289.83,918.5 1290.17,918.5 1290.5,918.5C 1291.99,922.942 1292.99,927.609 1293.5,932.5C 1291.72,931.28 1289.72,930.614 1287.5,930.5C 1224.95,870.221 1159.95,809.055 1092.5,747C 1091,745.509 1090.16,743.676 1090,741.5C 1089.5,745.152 1089.33,748.818 1089.5,752.5C 1088.53,750.052 1088.19,747.385 1088.5,744.5C 1088.5,743.167 1088.5,741.833 1088.5,740.5C 1089.83,740.5 1091.17,740.5 1092.5,740.5 Z"/></g>
<g><path style="opacity:1" fill="#9294c8" d="M 899.5,743.5 C 903.683,742.189 908.016,742.189 912.5,743.5C 912.376,744.107 912.043,744.44 911.5,744.5C 907.702,743.517 903.702,743.183 899.5,743.5 Z"/></g>
<g><path style="opacity:1" fill="#bb683e" d="M 1007.5,741.5 C 1018.65,742.495 1029.99,742.828 1041.5,742.5C 1044.85,742.335 1048.18,742.502 1051.5,743C 1051.17,743.333 1050.83,743.667 1050.5,744C 1062.33,754.5 1073.5,765.667 1084,777.5C 1085.67,776.66 1085.83,777.16 1084.5,779C 1085.09,779.464 1085.76,779.631 1086.5,779.5C 1083.57,780.817 1080.57,782.15 1077.5,783.5C 1064.37,770.534 1051.03,757.7 1037.5,745C 1032.91,743.775 1028.25,743.275 1023.5,743.5C 1017.5,743.5 1011.5,743.5 1005.5,743.5C 1005.83,742.5 1006.5,741.833 1007.5,741.5 Z"/></g>
<g><path style="opacity:1" fill="#c56b36" d="M 1077.5,740.5 C 1079.83,740.5 1082.17,740.5 1084.5,740.5C 1085.47,753.483 1086.14,766.483 1086.5,779.5C 1085.76,779.631 1085.09,779.464 1084.5,779C 1085.83,777.16 1085.67,776.66 1084,777.5C 1073.5,765.667 1062.33,754.5 1050.5,744C 1050.83,743.667 1051.17,743.333 1051.5,743C 1048.18,742.502 1044.85,742.335 1041.5,742.5C 1053.33,741.544 1065.33,740.878 1077.5,740.5 Z"/></g>
<g><path style="opacity:1" fill="#ab624b" d="M 1005.5,743.5 C 1011.5,743.5 1017.5,743.5 1023.5,743.5C 1022.74,744.268 1021.74,744.768 1020.5,745C 1037.03,760.033 1053.36,775.2 1069.5,790.5C 1066.89,794.067 1064.56,797.733 1062.5,801.5C 1041.88,782.858 1021.88,764.191 1002.5,745.5C 1003.29,744.599 1004.29,743.932 1005.5,743.5 Z"/></g>
<g><path style="opacity:1" fill="#b36444" d="M 1023.5,743.5 C 1028.25,743.275 1032.91,743.775 1037.5,745C 1051.03,757.7 1064.37,770.534 1077.5,783.5C 1074.86,785.804 1072.19,788.138 1069.5,790.5C 1053.36,775.2 1037.03,760.033 1020.5,745C 1021.74,744.768 1022.74,744.268 1023.5,743.5 Z"/></g>
<g><path style="opacity:1" fill="#d5702a" d="M 1287.5,930.5 C 1284.52,930.963 1281.52,931.296 1278.5,931.5C 1266.4,919.896 1254.4,908.063 1242.5,896C 1192.66,849.501 1142.66,802.835 1092.5,756C 1091.55,755.517 1090.55,755.351 1089.5,755.5C 1089.5,754.5 1089.5,753.5 1089.5,752.5C 1089.33,748.818 1089.5,745.152 1090,741.5C 1090.16,743.676 1091,745.509 1092.5,747C 1159.95,809.055 1224.95,870.221 1287.5,930.5 Z"/></g>
<g><path style="opacity:1" fill="#9e5d51" d="M 1002.5,745.5 C 1021.88,764.191 1041.88,782.858 1062.5,801.5C 1060.3,808.398 1059.96,815.398 1061.5,822.5C 1039.11,800.95 1016.44,779.45 993.5,758C 991.811,758.134 990.144,758.634 988.5,759.5C 992.833,754.5 997.5,749.833 1002.5,745.5 Z"/></g>
<g><path style="opacity:1" fill="#21388e" d="M 1731.5,753.5 C 1732.38,753.369 1733.04,753.702 1733.5,754.5C 1734.2,757.29 1735.2,759.957 1736.5,762.5C 1745.72,759.455 1755.05,756.789 1764.5,754.5C 1765.17,754.833 1765.83,755.167 1766.5,755.5C 1770.8,770.245 1774.8,785.078 1778.5,800C 1778.25,801.326 1777.58,802.326 1776.5,803C 1772.09,804.018 1767.76,805.185 1763.5,806.5C 1761.63,796.702 1759.3,787.036 1756.5,777.5C 1750.94,777.891 1745.6,779.224 1740.5,781.5C 1742.07,785.271 1743.4,789.105 1744.5,793C 1740.57,794.477 1736.57,795.644 1732.5,796.5C 1731.9,792.065 1730.4,788.065 1728,784.5C 1718.78,787.246 1709.62,789.746 1700.5,792C 1698.33,785.642 1696.66,779.142 1695.5,772.5C 1704.72,771.062 1713.72,768.729 1722.5,765.5C 1723.18,762.841 1722.85,760.175 1721.5,757.5C 1724.85,756.042 1728.18,754.708 1731.5,753.5 Z"/></g>
<g><path style="opacity:1" fill="#965757" d="M 1061.5,822.5 C 1065.58,837.914 1075.25,847.581 1090.5,851.5C 1090.5,853.167 1090.5,854.833 1090.5,856.5C 1089.85,857.091 1089.18,857.757 1088.5,858.5C 1054.78,826.942 1020.95,795.609 987,764.5C 985.649,766.018 984.149,767.351 982.5,768.5C 983.759,764.975 985.759,761.975 988.5,759.5C 990.144,758.634 991.811,758.134 993.5,758C 1016.44,779.45 1039.11,800.95 1061.5,822.5 Z"/></g>
<g><path style="opacity:1" fill="#cd7032" d="M 1089.5,755.5 C 1090.55,755.351 1091.55,755.517 1092.5,756C 1142.66,802.835 1192.66,849.501 1242.5,896C 1254.4,908.063 1266.4,919.896 1278.5,931.5C 1274.69,932.026 1271.02,932.693 1267.5,933.5C 1264.5,933.5 1261.5,933.5 1258.5,933.5C 1260.63,932.686 1262.96,932.186 1265.5,932C 1261.94,928.942 1258.94,925.442 1256.5,921.5C 1216.27,883.428 1175.93,845.594 1135.5,808C 1134.56,807.308 1133.9,807.475 1133.5,808.5C 1127.22,787.489 1112.89,777.489 1090.5,778.5C 1090.69,770.799 1090.36,763.132 1089.5,755.5 Z"/></g>
<g><path style="opacity:1" fill="#20388e" d="M 217.5,759.5 C 222.179,759.334 226.845,759.501 231.5,760C 242.566,763.133 253.566,766.467 264.5,770C 270.859,770.169 277.193,770.669 283.5,771.5C 281.901,777.133 280.401,782.8 279,788.5C 276.2,789.125 273.366,789.792 270.5,790.5C 277.065,804.069 275.398,816.569 265.5,828C 253.696,835.2 243.196,833.7 234,823.5C 232.438,821.043 231.438,818.376 231,815.5C 230.405,805.991 230.572,796.491 231.5,787C 232.798,779.484 229.798,776.817 222.5,779C 216.348,784.122 214.182,790.622 216,798.5C 217.309,800.976 219.142,802.976 221.5,804.5C 218.829,809.842 216.162,815.176 213.5,820.5C 200.915,812.494 196.748,801.161 201,786.5C 203.477,775.526 208.977,766.526 217.5,759.5 Z"/></g>
<g><path style="opacity:1" fill="#8e5757" d="M 1090.5,856.5 C 1090.82,863.346 1091.48,870.013 1092.5,876.5C 1092.5,883.167 1092.5,889.833 1092.5,896.5C 1091.51,892.03 1091.18,887.363 1091.5,882.5C 1091.66,880.801 1091.49,879.134 1091,877.5C 1090.67,877.833 1090.33,878.167 1090,878.5C 1089.64,876.392 1088.97,874.392 1088,872.5C 1052.67,839.167 1017.33,805.833 982,772.5C 981.805,771.181 981.972,769.847 982.5,768.5C 984.149,767.351 985.649,766.018 987,764.5C 1020.95,795.609 1054.78,826.942 1088.5,858.5C 1089.18,857.757 1089.85,857.091 1090.5,856.5 Z"/></g>
<g><path style="opacity:1" fill="#f59333" d="M 1084.5,740.5 C 1085.32,742.389 1086.16,744.389 1087,746.5C 1087.28,745.584 1087.78,744.918 1088.5,744.5C 1088.19,747.385 1088.53,750.052 1089.5,752.5C 1089.5,753.5 1089.5,754.5 1089.5,755.5C 1090.36,763.132 1090.69,770.799 1090.5,778.5C 1089.17,778.833 1087.83,779.167 1086.5,779.5C 1086.14,766.483 1085.47,753.483 1084.5,740.5 Z"/></g>
<g><path style="opacity:1" fill="#84505c" d="M 982.5,768.5 C 981.972,769.847 981.805,771.181 982,772.5C 1017.33,805.833 1052.67,839.167 1088,872.5C 1088.97,874.392 1089.64,876.392 1090,878.5C 1090.33,878.167 1090.67,877.833 1091,877.5C 1091.49,879.134 1091.66,880.801 1091.5,882.5C 1090.52,886.634 1090.18,890.968 1090.5,895.5C 1051.62,858.61 1012.62,822.276 973.5,786.5C 973.5,785.833 973.167,785.5 972.5,785.5C 974.462,780.243 976.962,775.243 980,770.5C 980.708,769.619 981.542,768.953 982.5,768.5 Z"/></g>
<g><path style="opacity:1" fill="#f9f8f8" d="M 1090.5,778.5 C 1112.89,777.489 1127.22,787.489 1133.5,808.5C 1133.5,812.167 1133.5,815.833 1133.5,819.5C 1132.34,823.011 1131.34,826.677 1130.5,830.5C 1128.2,833.81 1125.87,837.143 1123.5,840.5C 1119.97,843.423 1116.31,846.09 1112.5,848.5C 1107.73,850.533 1102.73,851.533 1097.5,851.5C 1096.83,851.5 1096.17,851.5 1095.5,851.5C 1093.83,851.5 1092.17,851.5 1090.5,851.5C 1075.25,847.581 1065.58,837.914 1061.5,822.5C 1059.96,815.398 1060.3,808.398 1062.5,801.5C 1064.56,797.733 1066.89,794.067 1069.5,790.5C 1072.19,788.138 1074.86,785.804 1077.5,783.5C 1080.57,782.15 1083.57,780.817 1086.5,779.5C 1087.83,779.167 1089.17,778.833 1090.5,778.5 Z"/></g>
<g><path style="opacity:1" fill="#f4f4f7" d="M 243.5,783.5 C 259.493,785.275 264.993,793.609 260,808.5C 256.604,812.203 252.437,813.369 247.5,812C 245.951,810.786 244.785,809.286 244,807.5C 243.5,799.507 243.334,791.507 243.5,783.5 Z"/></g>
<g><path style="opacity:1" fill="#7d515d" d="M 973.5,786.5 C 1012.62,822.276 1051.62,858.61 1090.5,895.5C 1090.66,898.518 1090.5,901.518 1090,904.5C 1050.75,867.917 1011.41,831.251 972,794.5C 971.282,791.593 971.782,788.926 973.5,786.5 Z"/></g>
<g><path style="opacity:1" fill="#775064" d="M 972.5,785.5 C 973.167,785.5 973.5,785.833 973.5,786.5C 971.782,788.926 971.282,791.593 972,794.5C 1011.41,831.251 1050.75,867.917 1090,904.5C 1090.5,901.518 1090.66,898.518 1090.5,895.5C 1090.18,890.968 1090.52,886.634 1091.5,882.5C 1091.18,887.363 1091.51,892.03 1092.5,896.5C 1093.17,906.486 1093.5,916.486 1093.5,926.5C 1092.92,920.24 1092.08,913.907 1091,907.5C 1091.26,912.816 1091.26,918.149 1091,923.5C 1049.7,885.199 1008.7,846.533 968,807.5C 967.333,806.167 967.333,804.833 968,803.5C 973.032,808.867 978.365,813.867 984,818.5C 979.734,813.22 974.901,808.053 969.5,803C 968.552,802.517 967.552,802.351 966.5,802.5C 967.731,796.468 969.731,790.801 972.5,785.5 Z"/></g>
<g><path style="opacity:1" fill="#1f388f" d="M 899.5,743.5 C 903.702,743.183 907.702,743.517 911.5,744.5C 904.324,761.04 900.658,778.373 900.5,796.5C 900.346,849.02 920.68,891.52 961.5,924C 971.852,931.027 982.185,938.027 992.5,945C 992.355,945.772 992.022,946.439 991.5,947C 957.835,947.5 924.168,947.667 890.5,947.5C 891.921,879.427 894.921,811.427 899.5,743.5 Z"/></g>
<g><path style="opacity:1" fill="#c56937" d="M 1258.5,933.5 C 1256.83,933.5 1255.17,933.5 1253.5,933.5C 1213.48,896.649 1173.65,859.649 1134,822.5C 1133.52,821.552 1133.35,820.552 1133.5,819.5C 1133.5,815.833 1133.5,812.167 1133.5,808.5C 1133.9,807.475 1134.56,807.308 1135.5,808C 1175.93,845.594 1216.27,883.428 1256.5,921.5C 1258.94,925.442 1261.94,928.942 1265.5,932C 1262.96,932.186 1260.63,932.686 1258.5,933.5 Z"/></g>
<g><path style="opacity:1" fill="#704b68" d="M 966.5,802.5 C 967.552,802.351 968.552,802.517 969.5,803C 974.901,808.053 979.734,813.22 984,818.5C 978.365,813.867 973.032,808.867 968,803.5C 967.333,804.833 967.333,806.167 968,807.5C 1008.7,846.533 1049.7,885.199 1091,923.5C 1091.26,918.149 1091.26,912.816 1091,907.5C 1092.08,913.907 1092.92,920.24 1093.5,926.5C 1093.5,929.167 1093.5,931.833 1093.5,934.5C 1085.7,929.461 1077.36,925.795 1068.5,923.5C 1072,921.916 1072,920.749 1068.5,920C 1034.31,887.805 1000.14,855.639 966,823.5C 965.817,820.635 965.317,817.969 964.5,815.5C 964.269,811.007 964.936,806.674 966.5,802.5 Z"/></g>
<g><path style="opacity:1" fill="#7073b1" d="M 1780.5,818.5 C 1781.92,817.549 1783.59,817.216 1785.5,817.5C 1785.5,818.833 1785.5,820.167 1785.5,821.5C 1784.6,820.791 1784.26,819.791 1784.5,818.5C 1783.17,818.5 1781.83,818.5 1780.5,818.5 Z"/></g>
<g><path style="opacity:1" fill="#21388f" d="M 1780.5,818.5 C 1781.83,818.5 1783.17,818.5 1784.5,818.5C 1784.26,819.791 1784.6,820.791 1785.5,821.5C 1786.7,826.294 1787.7,831.127 1788.5,836C 1778.41,838.19 1768.41,840.69 1758.5,843.5C 1762.27,856.577 1763.77,869.91 1763,883.5C 1756.34,897.391 1745.84,901.224 1731.5,895C 1726.05,889.601 1722.55,883.101 1721,875.5C 1718.35,860.44 1715.52,845.44 1712.5,830.5C 1735.15,826.37 1757.81,822.37 1780.5,818.5 Z"/></g>
<g><path style="opacity:1" fill="#6a4b6a" d="M 964.5,815.5 C 965.317,817.969 965.817,820.635 966,823.5C 1000.14,855.639 1034.31,887.805 1068.5,920C 1072,920.749 1072,921.916 1068.5,923.5C 1062.65,922.477 1056.98,921.143 1051.5,919.5C 1052.68,919.719 1053.68,919.386 1054.5,918.5C 1025.71,891.544 997.042,864.377 968.5,837C 967.184,836.472 966.517,836.972 966.5,838.5C 964.745,831.077 964.079,823.411 964.5,815.5 Z"/></g>
<g><path style="opacity:1" fill="#ba663e" d="M 1133.5,819.5 C 1133.35,820.552 1133.52,821.552 1134,822.5C 1173.65,859.649 1213.48,896.649 1253.5,933.5C 1250.57,934.299 1247.57,934.632 1244.5,934.5C 1241.92,933.776 1239.25,932.943 1236.5,932C 1202.32,899.65 1167.98,867.483 1133.5,835.5C 1132.05,834.06 1131.05,832.394 1130.5,830.5C 1131.34,826.677 1132.34,823.011 1133.5,819.5 Z"/></g>
<g><path style="opacity:1" fill="#b16444" d="M 1130.5,830.5 C 1131.05,832.394 1132.05,834.06 1133.5,835.5C 1167.98,867.483 1202.32,899.65 1236.5,932C 1239.25,932.943 1241.92,933.776 1244.5,934.5C 1241.17,934.833 1237.83,935.167 1234.5,935.5C 1230.69,934.676 1226.69,934.176 1222.5,934C 1189.3,902.967 1156.3,871.8 1123.5,840.5C 1125.87,837.143 1128.2,833.81 1130.5,830.5 Z"/></g>
<g><path style="opacity:1" fill="#21398f" d="M 161.5,835.5 C 195.007,840.556 228.34,846.556 261.5,853.5C 259.983,860.084 258.983,866.751 258.5,873.5C 245.119,871.424 231.786,869.09 218.5,866.5C 221.217,881.139 219.384,895.139 213,908.5C 207.437,917.639 199.27,921.973 188.5,921.5C 175.133,919.781 161.8,917.781 148.5,915.5C 148.048,908.096 149.381,901.096 152.5,894.5C 162.58,895.791 172.58,897.625 182.5,900C 195.209,901.968 202.042,896.468 203,883.5C 203.667,877.833 203.667,872.167 203,866.5C 202.626,865.584 202.126,864.75 201.5,864C 187.326,860.665 172.992,858.165 158.5,856.5C 159.175,849.451 160.175,842.451 161.5,835.5 Z"/></g>
<g><path style="opacity:1" fill="#ab624b" d="M 1123.5,840.5 C 1156.3,871.8 1189.3,902.967 1222.5,934C 1226.69,934.176 1230.69,934.676 1234.5,935.5C 1228.45,935.904 1222.45,936.571 1216.5,937.5C 1214.5,937.5 1212.5,937.5 1210.5,937.5C 1209.05,936.698 1207.38,936.198 1205.5,936C 1174.38,907.051 1143.38,877.884 1112.5,848.5C 1116.31,846.09 1119.97,843.423 1123.5,840.5 Z"/></g>
<g><path style="opacity:1" fill="#634a70" d="M 1051.5,919.5 C 1005.91,910.572 977.573,883.572 966.5,838.5C 966.517,836.972 967.184,836.472 968.5,837C 997.042,864.377 1025.71,891.544 1054.5,918.5C 1053.68,919.386 1052.68,919.719 1051.5,919.5 Z"/></g>
<g><path style="opacity:1" fill="#f5f5f8" d="M 1743.5,844.5 C 1744.83,844.5 1746.17,844.5 1747.5,844.5C 1748.68,853.848 1749.52,863.181 1750,872.5C 1747.1,877.155 1742.94,878.655 1737.5,877C 1736.33,875.833 1735.17,874.667 1734,873.5C 1732.23,865.149 1730.4,856.816 1728.5,848.5C 1733.65,847.265 1738.65,845.931 1743.5,844.5 Z"/></g>
<g><path style="opacity:1" fill="#a05d51" d="M 1112.5,848.5 C 1143.38,877.884 1174.38,907.051 1205.5,936C 1207.38,936.198 1209.05,936.698 1210.5,937.5C 1201.82,938.014 1193.15,938.681 1184.5,939.5C 1183.4,938.603 1183.4,937.77 1184.5,937C 1155.72,910.223 1126.89,883.389 1098,856.5C 1097.51,854.866 1097.34,853.199 1097.5,851.5C 1102.73,851.533 1107.73,850.533 1112.5,848.5 Z"/></g>
<g><path style="opacity:1" fill="#935757" d="M 1095.5,851.5 C 1096.17,851.5 1096.83,851.5 1097.5,851.5C 1097.34,853.199 1097.51,854.866 1098,856.5C 1126.89,883.389 1155.72,910.223 1184.5,937C 1183.4,937.77 1183.4,938.603 1184.5,939.5C 1179.9,940.383 1175.23,940.717 1170.5,940.5C 1168.83,940.5 1167.17,940.5 1165.5,940.5C 1163.71,939.691 1161.71,939.191 1159.5,939C 1139.33,920.167 1119.17,901.333 1099,882.5C 1097.78,875.245 1097.11,867.911 1097,860.5C 1096.5,865.489 1096.33,870.489 1096.5,875.5C 1095.51,867.684 1095.17,859.684 1095.5,851.5 Z"/></g>
<g><path style="opacity:1" fill="#1b388f" d="M 1587.5,856.5 C 1588.5,856.5 1589.5,856.5 1590.5,856.5C 1603.01,907.209 1609.34,958.709 1609.5,1011C 1609.69,1027.56 1608.85,1044.06 1607,1060.5C 1570.03,1079.82 1531.7,1095.82 1492,1108.5C 1493.11,1092.52 1494.44,1076.52 1496,1060.5C 1497.89,1025.83 1497.89,991.163 1496,956.5C 1494.16,935.78 1492.16,915.113 1490,894.5C 1523.24,883.48 1555.74,870.813 1587.5,856.5 Z"/></g>
<g><path style="opacity:1" fill="#1a388e" d="M 384.5,858.5 C 402.908,865.026 421.241,871.859 439.5,879C 457.527,885.589 475.86,891.089 494.5,895.5C 484.712,964.247 484.045,1033.08 492.5,1102C 492.167,1103.17 491.833,1104.33 491.5,1105.5C 448.818,1091.83 407.485,1074.83 367.5,1054.5C 361.867,988.131 367.534,922.797 384.5,858.5 Z"/></g>
<g><path style="opacity:1" fill="#f3ba7f" d="M 1090.5,851.5 C 1092.17,851.5 1093.83,851.5 1095.5,851.5C 1095.17,859.684 1095.51,867.684 1096.5,875.5C 1096.5,881.833 1096.5,888.167 1096.5,894.5C 1095.5,894.586 1094.67,894.252 1094,893.5C 1093.89,886.436 1093.39,880.77 1092.5,876.5C 1091.48,870.013 1090.82,863.346 1090.5,856.5C 1090.5,854.833 1090.5,853.167 1090.5,851.5 Z"/></g>
<g><path style="opacity:1" fill="#273a8f" d="M 696.5,868.5 C 698.872,881.718 701.372,895.051 704,908.5C 705.708,916.29 708.208,923.79 711.5,931C 705.08,931.558 698.747,931.058 692.5,929.5C 691.337,924.198 691.171,918.864 692,913.5C 693.591,898.498 695.091,883.498 696.5,868.5 Z"/></g>
<g><path style="opacity:1" fill="#82505c" d="M 1165.5,940.5 C 1153.87,941.745 1142.2,942.412 1130.5,942.5C 1129.39,941.71 1128.06,941.21 1126.5,941C 1117.67,932.833 1108.83,924.667 1100,916.5C 1099.33,917.252 1098.5,917.586 1097.5,917.5C 1097.69,909.799 1097.36,902.132 1096.5,894.5C 1096.5,888.167 1096.5,881.833 1096.5,875.5C 1096.33,870.489 1096.5,865.489 1097,860.5C 1097.11,867.911 1097.78,875.245 1099,882.5C 1119.17,901.333 1139.33,920.167 1159.5,939C 1161.71,939.191 1163.71,939.691 1165.5,940.5 Z"/></g>
<g><path style="opacity:1" fill="#1a388f" d="M 1480.5,896.5 C 1482.14,896.286 1483.64,896.62 1485,897.5C 1495.8,968.412 1496.3,1039.41 1486.5,1110.5C 1431.94,1124.64 1376.6,1134.97 1320.5,1141.5C 1319.5,1141.17 1318.5,1140.83 1317.5,1140.5C 1352.81,1072.74 1366.81,1000.74 1359.5,924.5C 1400.72,918.443 1441.05,909.11 1480.5,896.5 Z"/></g>
<g><path style="opacity:1" fill="#1b388f" d="M 498.5,897.5 C 537.129,907.383 576.129,915.55 615.5,922C 628.067,958.56 650.901,986.726 684,1006.5C 684.701,1016.84 685.034,1027.17 685,1037.5C 673.476,1032.65 662.976,1026.15 653.5,1018C 652.552,1017.52 651.552,1017.35 650.5,1017.5C 651.749,1046.67 664.416,1069.34 688.5,1085.5C 691.031,1105.15 693.364,1124.81 695.5,1144.5C 680.1,1142.75 664.767,1140.59 649.5,1138C 635.363,1112.9 621.863,1087.4 609,1061.5C 606.845,1055.99 603.845,1055.32 600,1059.5C 599.333,1066.17 599.333,1072.83 600,1079.5C 605.849,1097.88 613.349,1115.55 622.5,1132.5C 621.667,1132.83 620.833,1133.17 620,1133.5C 578.672,1127.07 537.838,1118.4 497.5,1107.5C 490.307,1055 488.807,1002.33 493,949.5C 494.975,932.175 496.809,914.842 498.5,897.5 Z"/></g>
<g><path style="opacity:1" fill="#21388f" d="M 1797.5,898.5 C 1798.5,898.5 1799.5,898.5 1800.5,898.5C 1801.76,905.128 1802.76,911.794 1803.5,918.5C 1779.46,922.575 1755.46,926.908 1731.5,931.5C 1730.24,924.872 1729.24,918.206 1728.5,911.5C 1751.79,908.04 1774.79,903.707 1797.5,898.5 Z"/></g>
<g><path style="opacity:1" fill="#754f64" d="M 1130.5,942.5 C 1121.52,943.166 1112.52,943.499 1103.5,943.5C 1101.5,941.5 1099.5,939.5 1097.5,937.5C 1097.5,930.833 1097.5,924.167 1097.5,917.5C 1098.5,917.586 1099.33,917.252 1100,916.5C 1108.83,924.667 1117.67,932.833 1126.5,941C 1128.06,941.21 1129.39,941.71 1130.5,942.5 Z"/></g>
<g><path style="opacity:1" fill="#f5c796" d="M 1096.5,894.5 C 1097.36,902.132 1097.69,909.799 1097.5,917.5C 1097.5,924.167 1097.5,930.833 1097.5,937.5C 1096.13,936.488 1094.8,935.488 1093.5,934.5C 1093.5,931.833 1093.5,929.167 1093.5,926.5C 1093.5,916.486 1093.17,906.486 1092.5,896.5C 1092.5,889.833 1092.5,883.167 1092.5,876.5C 1093.39,880.77 1093.89,886.436 1094,893.5C 1094.67,894.252 1095.5,894.586 1096.5,894.5 Z"/></g>
<g><path style="opacity:1" fill="#f39439" d="M 1287.5,930.5 C 1289.72,930.614 1291.72,931.28 1293.5,932.5C 1297.63,957.234 1298.29,981.9 1295.5,1006.5C 1295.79,990.465 1295.45,974.465 1294.5,958.5C 1293.89,950.494 1293.23,942.494 1292.5,934.5C 1283.18,935.347 1273.85,936.014 1264.5,936.5C 1262.9,936.688 1261.56,936.188 1260.5,935C 1263.04,934.814 1265.37,934.314 1267.5,933.5C 1271.02,932.693 1274.69,932.026 1278.5,931.5C 1281.52,931.296 1284.52,930.963 1287.5,930.5 Z"/></g>
<g><path style="opacity:1" fill="#263a90" d="M 669.5,931.5 C 675.152,932.032 680.819,932.365 686.5,932.5C 685.335,948.478 684.502,964.478 684,980.5C 678.161,974.823 673.827,968.157 671,960.5C 669.756,950.874 669.256,941.208 669.5,931.5 Z"/></g>
<g><path style="opacity:1" fill="#21398f" d="M 690.5,933.5 C 698.454,934.828 706.454,935.995 714.5,937C 715.874,939.583 717.374,942.083 719,944.5C 718.547,954.145 718.547,963.812 719,973.5C 720.309,982.545 721.809,991.545 723.5,1000.5C 710.246,998.788 698.746,993.454 689,984.5C 688.751,967.479 689.251,950.479 690.5,933.5 Z"/></g>
<g><path style="opacity:1" fill="#ce6f31" d="M 1294.5,958.5 C 1289.74,951.9 1284.07,946.067 1277.5,941C 1273.62,938.137 1269.29,936.97 1264.5,937.5C 1264.5,937.167 1264.5,936.833 1264.5,936.5C 1273.85,936.014 1283.18,935.347 1292.5,934.5C 1293.23,942.494 1293.89,950.494 1294.5,958.5 Z"/></g>
<g><path style="opacity:1" fill="#f5a34f" d="M 1253.5,933.5 C 1255.17,933.5 1256.83,933.5 1258.5,933.5C 1261.5,933.5 1264.5,933.5 1267.5,933.5C 1265.37,934.314 1263.04,934.814 1260.5,935C 1261.56,936.188 1262.9,936.688 1264.5,936.5C 1264.5,936.833 1264.5,937.167 1264.5,937.5C 1257.98,937.79 1251.65,938.457 1245.5,939.5C 1238.18,940.038 1230.84,940.371 1223.5,940.5C 1220.54,940.536 1218.21,939.536 1216.5,937.5C 1222.45,936.571 1228.45,935.904 1234.5,935.5C 1237.83,935.167 1241.17,934.833 1244.5,934.5C 1247.57,934.632 1250.57,934.299 1253.5,933.5 Z"/></g>
<g><path style="opacity:1" fill="#f4b370" d="M 1210.5,937.5 C 1212.5,937.5 1214.5,937.5 1216.5,937.5C 1218.21,939.536 1220.54,940.536 1223.5,940.5C 1223.5,940.833 1223.5,941.167 1223.5,941.5C 1217.64,941.178 1211.98,941.511 1206.5,942.5C 1198.64,942.667 1190.98,943.334 1183.5,944.5C 1180.83,944.5 1178.17,944.5 1175.5,944.5C 1172.36,943.679 1169.03,943.179 1165.5,943C 1167.65,942.901 1169.32,942.067 1170.5,940.5C 1175.23,940.717 1179.9,940.383 1184.5,939.5C 1193.15,938.681 1201.82,938.014 1210.5,937.5 Z"/></g>
<g><path style="opacity:1" fill="#bd683c" d="M 1264.5,937.5 C 1269.29,936.97 1273.62,938.137 1277.5,941C 1284.07,946.067 1289.74,951.9 1294.5,958.5C 1295.45,974.465 1295.79,990.465 1295.5,1006.5C 1295.81,1010.37 1295.48,1014.04 1294.5,1017.5C 1294.5,1016.5 1294.5,1015.5 1294.5,1014.5C 1294.83,1005.32 1294.49,996.318 1293.5,987.5C 1291.91,984.521 1289.91,981.688 1287.5,979C 1273.51,966.673 1259.84,954.006 1246.5,941C 1252.86,940.019 1252.53,939.519 1245.5,939.5C 1251.65,938.457 1257.98,937.79 1264.5,937.5 Z"/></g>
<g><path style="opacity:1" fill="#b16444" d="M 1245.5,939.5 C 1252.53,939.519 1252.86,940.019 1246.5,941C 1259.84,954.006 1273.51,966.673 1287.5,979C 1289.91,981.688 1291.91,984.521 1293.5,987.5C 1293.82,991.555 1293.49,995.555 1292.5,999.5C 1272.65,980.484 1252.65,961.65 1232.5,943C 1229.65,941.711 1226.65,941.211 1223.5,941.5C 1223.5,941.167 1223.5,940.833 1223.5,940.5C 1230.84,940.371 1238.18,940.038 1245.5,939.5 Z"/></g>
<g><path style="opacity:1" fill="#f2bf8a" d="M 1165.5,940.5 C 1167.17,940.5 1168.83,940.5 1170.5,940.5C 1169.32,942.067 1167.65,942.901 1165.5,943C 1169.03,943.179 1172.36,943.679 1175.5,944.5C 1174.21,944.263 1173.21,944.596 1172.5,945.5C 1166.97,945.179 1161.64,945.512 1156.5,946.5C 1146.99,946.173 1137.65,946.506 1128.5,947.5C 1121.65,947.176 1114.98,947.509 1108.5,948.5C 1107.05,946.597 1105.39,944.93 1103.5,943.5C 1112.52,943.499 1121.52,943.166 1130.5,942.5C 1142.2,942.412 1153.87,941.745 1165.5,940.5 Z"/></g>
<g><path style="opacity:1" fill="#a9624b" d="M 1206.5,942.5 C 1211.98,941.511 1217.64,941.178 1223.5,941.5C 1226.65,941.211 1229.65,941.711 1232.5,943C 1252.65,961.65 1272.65,980.484 1292.5,999.5C 1293.49,995.555 1293.82,991.555 1293.5,987.5C 1294.49,996.318 1294.83,1005.32 1294.5,1014.5C 1293.73,1015.26 1293.23,1016.26 1293,1017.5C 1267.13,992.633 1240.97,968.133 1214.5,944C 1215.5,943.667 1216.5,943.333 1217.5,943C 1213.85,942.501 1210.18,942.335 1206.5,942.5 Z"/></g>
<g><path style="opacity:1" fill="#a05c50" d="M 1206.5,942.5 C 1210.18,942.335 1213.85,942.501 1217.5,943C 1216.5,943.333 1215.5,943.667 1214.5,944C 1240.97,968.133 1267.13,992.633 1293,1017.5C 1293.23,1016.26 1293.73,1015.26 1294.5,1014.5C 1294.5,1015.5 1294.5,1016.5 1294.5,1017.5C 1294.41,1025.09 1293.41,1032.42 1291.5,1039.5C 1287.14,1033.63 1282.14,1028.13 1276.5,1023C 1249.61,998.45 1222.94,973.45 1196.5,948C 1194.18,946.007 1191.52,944.841 1188.5,944.5C 1186.83,944.5 1185.17,944.5 1183.5,944.5C 1190.98,943.334 1198.64,942.667 1206.5,942.5 Z"/></g>
<g><path style="opacity:1" fill="#8e5656" d="M 1172.5,945.5 C 1173.21,944.596 1174.21,944.263 1175.5,944.5C 1178.17,944.5 1180.83,944.5 1183.5,944.5C 1185.17,944.5 1186.83,944.5 1188.5,944.5C 1186.5,945.148 1184.5,945.981 1182.5,947C 1218.36,979.695 1253.69,1012.86 1288.5,1046.5C 1288.12,1050.02 1287.12,1053.36 1285.5,1056.5C 1251.65,1024.82 1217.65,993.316 1183.5,962C 1178.5,957 1173.5,952 1168.5,947C 1171.17,946.667 1173.83,946.333 1176.5,946C 1175.21,945.51 1173.87,945.343 1172.5,945.5 Z"/></g>
<g><path style="opacity:1" fill="#955656" d="M 1188.5,944.5 C 1191.52,944.841 1194.18,946.007 1196.5,948C 1222.94,973.45 1249.61,998.45 1276.5,1023C 1282.14,1028.13 1287.14,1033.63 1291.5,1039.5C 1291.71,1042.5 1291.04,1045.16 1289.5,1047.5C 1289.5,1046.83 1289.17,1046.5 1288.5,1046.5C 1253.69,1012.86 1218.36,979.695 1182.5,947C 1184.5,945.981 1186.5,945.148 1188.5,944.5 Z"/></g>
<g><path style="opacity:1" fill="#1d388e" d="M 799.5,946.5 C 828.138,948.42 856.805,949.753 885.5,950.5C 885.833,980.841 885.5,1011.17 884.5,1041.5C 868.995,1031.58 853.662,1021.41 838.5,1011C 828.5,1001.16 820.334,989.998 814,977.5C 811.966,974.141 809.632,973.808 807,976.5C 799.936,1010.77 803.769,1043.44 818.5,1074.5C 801.654,1068 788.154,1057.34 778,1042.5C 771.436,1026.42 770.769,1010.09 776,993.5C 782.787,977.259 790.62,961.593 799.5,946.5 Z"/></g>
<g><path style="opacity:1" fill="#88505b" d="M 1156.5,946.5 C 1161.64,945.512 1166.97,945.179 1172.5,945.5C 1173.87,945.343 1175.21,945.51 1176.5,946C 1173.83,946.333 1171.17,946.667 1168.5,947C 1173.5,952 1178.5,957 1183.5,962C 1217.65,993.316 1251.65,1024.82 1285.5,1056.5C 1287.12,1053.36 1288.12,1050.02 1288.5,1046.5C 1289.17,1046.5 1289.5,1046.83 1289.5,1047.5C 1288.58,1053.05 1287.25,1058.38 1285.5,1063.5C 1277.89,1058.59 1270.89,1052.26 1264.5,1044.5C 1229.98,1012.15 1195.32,979.983 1160.5,948C 1161.17,947.667 1161.83,947.333 1162.5,947C 1160.53,946.505 1158.53,946.338 1156.5,946.5 Z"/></g>
<g><path style="opacity:1" fill="#7f515d" d="M 1128.5,947.5 C 1137.65,946.506 1146.99,946.173 1156.5,946.5C 1158.53,946.338 1160.53,946.505 1162.5,947C 1161.83,947.333 1161.17,947.667 1160.5,948C 1195.32,979.983 1229.98,1012.15 1264.5,1044.5C 1270.89,1052.26 1277.89,1058.59 1285.5,1063.5C 1284.94,1068.16 1283.61,1072.5 1281.5,1076.5C 1280.19,1076.87 1279.19,1078.2 1278.5,1080.5C 1231.67,1036.7 1184.67,992.87 1137.5,949C 1139.5,948.667 1141.5,948.333 1143.5,948C 1138.51,947.501 1133.51,947.334 1128.5,947.5 Z"/></g>
<g><path style="opacity:1" fill="#765063" d="M 1108.5,948.5 C 1114.98,947.509 1121.65,947.176 1128.5,947.5C 1133.51,947.334 1138.51,947.501 1143.5,948C 1141.5,948.333 1139.5,948.667 1137.5,949C 1184.67,992.87 1231.67,1036.7 1278.5,1080.5C 1279.19,1078.2 1280.19,1076.87 1281.5,1076.5C 1280.6,1081.53 1278.94,1086.2 1276.5,1090.5C 1276.57,1090.06 1276.4,1089.73 1276,1089.5C 1275.42,1091 1274.58,1092.33 1273.5,1093.5C 1222.02,1045.85 1170.68,998.017 1119.5,950C 1121.5,949.667 1123.5,949.333 1125.5,949C 1119.84,948.501 1114.18,948.334 1108.5,948.5 Z"/></g>
<g><path style="opacity:1" fill="#704a68" d="M 1108.5,948.5 C 1114.18,948.334 1119.84,948.501 1125.5,949C 1123.5,949.333 1121.5,949.667 1119.5,950C 1170.68,998.017 1222.02,1045.85 1273.5,1093.5C 1274.58,1092.33 1275.42,1091 1276,1089.5C 1276.4,1089.73 1276.57,1090.06 1276.5,1090.5C 1274.75,1096.4 1272.42,1102.07 1269.5,1107.5C 1221.82,1062.48 1173.82,1017.82 1125.5,973.5C 1124.78,970.385 1123.28,967.718 1121,965.5C 1120.6,965.728 1120.43,966.062 1120.5,966.5C 1116.93,960.251 1112.93,954.251 1108.5,948.5 Z"/></g>
<g><path style="opacity:1" fill="#6b73b2" d="M 904.5,951.5 C 932.508,951.167 960.508,951.5 988.5,952.5C 988.376,953.107 988.043,953.44 987.5,953.5C 959.833,952.833 932.167,952.167 904.5,951.5 Z"/></g>
<g><path style="opacity:1" fill="#1c388f" d="M 904.5,951.5 C 932.167,952.167 959.833,952.833 987.5,953.5C 965.112,995.272 942.446,1036.94 919.5,1078.5C 909.833,1067.83 900.167,1057.17 890.5,1046.5C 889.5,1014.84 889.167,983.174 889.5,951.5C 894.5,951.5 899.5,951.5 904.5,951.5 Z"/></g>
<g><path style="opacity:1" fill="#1b378e" d="M 1043.5,966.5 C 1055.42,969.973 1067.09,974.14 1078.5,979C 1086.63,985.716 1090.3,994.383 1089.5,1005C 1089.12,1025.14 1082.62,1042.97 1070,1058.5C 1056.26,1074.45 1039.76,1086.62 1020.5,1095C 1001.21,1101.69 981.546,1103.19 961.5,1099.5C 989.095,1055.31 1016.43,1010.97 1043.5,966.5 Z"/></g>
<g><path style="opacity:1" fill="#694a69" d="M 1269.5,1107.5 C 1268.53,1110.1 1267.2,1112.43 1265.5,1114.5C 1223.84,1077.29 1182.84,1039.12 1142.5,1000C 1137.94,995.931 1133.27,992.098 1128.5,988.5C 1126.45,981.037 1123.78,973.704 1120.5,966.5C 1120.43,966.062 1120.6,965.728 1121,965.5C 1123.28,967.718 1124.78,970.385 1125.5,973.5C 1173.82,1017.82 1221.82,1062.48 1269.5,1107.5 Z"/></g>
<g><path style="opacity:1" fill="#644a6f" d="M 1128.5,988.5 C 1133.27,992.098 1137.94,995.931 1142.5,1000C 1182.84,1039.12 1223.84,1077.29 1265.5,1114.5C 1264.21,1119.75 1261.87,1124.42 1258.5,1128.5C 1258.06,1127.49 1257.4,1127.49 1256.5,1128.5C 1214.12,1089.3 1172.12,1049.63 1130.5,1009.5C 1130.33,1008.18 1130.66,1007.01 1131.5,1006C 1130.92,1001.48 1130.25,997.649 1129.5,994.5C 1128.54,992.735 1128.21,990.735 1128.5,988.5 Z"/></g>
<g><path style="opacity:1" fill="#5d4b70" d="M 1130.5,1009.5 C 1172.12,1049.63 1214.12,1089.3 1256.5,1128.5C 1256.33,1130.84 1255.16,1132.51 1253,1133.5C 1212.66,1094.83 1171.99,1056.5 1131,1018.5C 1130.5,1015.52 1130.34,1012.52 1130.5,1009.5 Z"/></g>
<g><path style="opacity:1" fill="#1c388e" d="M 690.5,1010.5 C 704.366,1017.73 719.032,1022.9 734.5,1026C 746.645,1047.48 762.978,1065.15 783.5,1079C 775.643,1086.12 766.309,1089.62 755.5,1089.5C 751.55,1089.24 747.883,1088.07 744.5,1086C 731.893,1075.06 719.559,1063.73 707.5,1052C 701.945,1047.45 696.112,1043.28 690,1039.5C 689.501,1033.51 689.334,1027.51 689.5,1021.5C 689.185,1017.63 689.518,1013.96 690.5,1010.5 Z"/></g>
<g><path style="opacity:1" fill="#959acb" d="M 690.5,1010.5 C 689.518,1013.96 689.185,1017.63 689.5,1021.5C 688.191,1017.65 688.191,1013.65 689.5,1009.5C 690.107,1009.62 690.44,1009.96 690.5,1010.5 Z"/></g>
<g><path style="opacity:1" fill="#584a75" d="M 1130.5,1009.5 C 1130.34,1012.52 1130.5,1015.52 1131,1018.5C 1171.99,1056.5 1212.66,1094.83 1253,1133.5C 1255.16,1132.51 1256.33,1130.84 1256.5,1128.5C 1257.4,1127.49 1258.06,1127.49 1258.5,1128.5C 1255.25,1135.35 1251.25,1141.68 1246.5,1147.5C 1245.43,1144.92 1243.77,1142.76 1241.5,1141C 1203.83,1106 1166.17,1071 1128.5,1036C 1127.22,1034.59 1126.22,1033.09 1125.5,1031.5C 1126.56,1025.49 1127.72,1019.49 1129,1013.5C 1129.5,1007.18 1129.67,1000.84 1129.5,994.5C 1130.25,997.649 1130.92,1001.48 1131.5,1006C 1130.66,1007.01 1130.33,1008.18 1130.5,1009.5 Z"/></g>
<g><path style="opacity:1" fill="#514476" d="M 1125.5,1031.5 C 1126.22,1033.09 1127.22,1034.59 1128.5,1036C 1166.17,1071 1203.83,1106 1241.5,1141C 1243.77,1142.76 1245.43,1144.92 1246.5,1147.5C 1246.17,1148.17 1245.83,1148.83 1245.5,1149.5C 1242.17,1149.5 1238.83,1149.5 1235.5,1149.5C 1230.64,1148.55 1225.64,1148.38 1220.5,1149C 1187,1117.5 1153.5,1086 1120,1054.5C 1119.51,1053.45 1119.67,1052.45 1120.5,1051.5C 1120.04,1050.7 1119.38,1050.37 1118.5,1050.5C 1121.11,1044.28 1123.44,1037.94 1125.5,1031.5 Z"/></g>
<g><path style="opacity:1" fill="#1a388e" d="M 367.5,1059.5 C 407.781,1080.22 449.614,1097.22 493,1110.5C 505.151,1193.61 528.984,1273.11 564.5,1349C 520.631,1340.95 478.798,1326.79 439,1306.5C 398.054,1229.16 374.22,1146.82 367.5,1059.5 Z"/></g>
<g><path style="opacity:1" fill="#45437c" d="M 1118.5,1050.5 C 1119.38,1050.37 1120.04,1050.7 1120.5,1051.5C 1119.67,1052.45 1119.51,1053.45 1120,1054.5C 1153.5,1086 1187,1117.5 1220.5,1149C 1225.64,1148.38 1230.64,1148.55 1235.5,1149.5C 1218.18,1150.99 1200.85,1152.32 1183.5,1153.5C 1182.05,1152.7 1180.38,1152.2 1178.5,1152C 1153.03,1128.87 1127.87,1105.37 1103,1081.5C 1102.67,1078.82 1103.5,1076.49 1105.5,1074.5C 1105.38,1073.89 1105.04,1073.56 1104.5,1073.5C 1109.92,1066.33 1114.59,1058.67 1118.5,1050.5 Z"/></g>
<g><path style="opacity:1" fill="#1a388e" d="M 1603.5,1066.5 C 1604.5,1066.5 1605.5,1066.5 1606.5,1066.5C 1598.84,1155.32 1573.34,1238.65 1530,1316.5C 1494.23,1333.15 1457.06,1344.82 1418.5,1351.5C 1454.13,1275.76 1477.97,1196.43 1490,1113.5C 1529.47,1101.51 1567.31,1085.84 1603.5,1066.5 Z"/></g>
<g><path style="opacity:1" fill="#1c388f" d="M 793.5,1086.5 C 801.113,1090.64 808.779,1094.81 816.5,1099C 825.904,1102.91 835.571,1106.25 845.5,1109C 858.175,1119.17 872.175,1127.01 887.5,1132.5C 887.663,1134.86 887.497,1137.19 887,1139.5C 883.266,1145.73 879.766,1152.06 876.5,1158.5C 847.449,1159.18 818.449,1158.02 789.5,1155C 759.461,1152.07 729.461,1148.9 699.5,1145.5C 697.158,1126.89 695.658,1108.22 695,1089.5C 725.113,1107.2 755.613,1108.03 786.5,1092C 789.02,1090.3 791.353,1088.47 793.5,1086.5 Z"/></g>
<g><path style="opacity:1" fill="#3a3e81" d="M 1104.5,1073.5 C 1105.04,1073.56 1105.38,1073.89 1105.5,1074.5C 1103.5,1076.49 1102.67,1078.82 1103,1081.5C 1127.87,1105.37 1153.03,1128.87 1178.5,1152C 1180.38,1152.2 1182.05,1152.7 1183.5,1153.5C 1181.26,1153.21 1179.26,1153.54 1177.5,1154.5C 1168.52,1155.17 1159.52,1155.5 1150.5,1155.5C 1133.61,1139.78 1116.78,1123.78 1100,1107.5C 1099.67,1105.83 1099.33,1104.17 1099,1102.5C 1098.72,1103.42 1098.22,1104.08 1097.5,1104.5C 1097.33,1096.83 1097.5,1089.16 1098,1081.5C 1100.41,1078.99 1102.58,1076.32 1104.5,1073.5 Z"/></g>
<g><path style="opacity:1" fill="#7d78a7" d="M 1092.5,1113.5 C 1092.83,1104.98 1092.49,1096.65 1091.5,1088.5C 1091.78,1087.71 1092.28,1087.04 1093,1086.5C 1093.82,1095.68 1093.66,1104.68 1092.5,1113.5 Z"/></g>
<g><path style="opacity:1" fill="#2c3e87" d="M 1091.5,1088.5 C 1092.49,1096.65 1092.83,1104.98 1092.5,1113.5C 1092.83,1122.68 1092.49,1131.68 1091.5,1140.5C 1091.67,1133.83 1091.5,1127.16 1091,1120.5C 1090.65,1130.19 1089.98,1139.86 1089,1149.5C 1077.83,1139 1066.67,1128.5 1055.5,1118C 1054.5,1117.67 1053.5,1117.33 1052.5,1117C 1059.5,1113.5 1066.16,1109.5 1072.5,1105C 1073.74,1104.31 1073.74,1103.81 1072.5,1103.5C 1079.1,1098.91 1085.43,1093.91 1091.5,1088.5 Z"/></g>
<g><path style="opacity:1" fill="#303d84" d="M 1150.5,1155.5 C 1134.84,1156.26 1119.17,1156.92 1103.5,1157.5C 1101.17,1157.5 1098.83,1157.5 1096.5,1157.5C 1096.5,1149.83 1096.5,1142.17 1096.5,1134.5C 1096.37,1124.48 1096.7,1114.48 1097.5,1104.5C 1098.22,1104.08 1098.72,1103.42 1099,1102.5C 1099.33,1104.17 1099.67,1105.83 1100,1107.5C 1116.78,1123.78 1133.61,1139.78 1150.5,1155.5 Z"/></g>
<g><path style="opacity:1" fill="#1a388e" d="M 498.5,1111.5 C 521.84,1118.39 545.506,1124.23 569.5,1129C 588.383,1132.45 607.216,1135.95 626,1139.5C 646.79,1181.63 675.124,1217.97 711,1248.5C 719.14,1291.69 729.306,1334.35 741.5,1376.5C 737.541,1377.66 733.541,1377.83 729.5,1377C 688.613,1372.46 647.947,1366.46 607.5,1359C 594.852,1356.55 582.352,1353.71 570,1350.5C 534.161,1274.51 510.328,1194.85 498.5,1111.5 Z"/></g>
<g><path style="opacity:1" fill="#1a388e" d="M 1324.5,1145.5 C 1327.25,1145.27 1329.92,1145.61 1332.5,1146.5C 1334.79,1144.41 1337.29,1144.07 1340,1145.5C 1343.19,1143.71 1346.69,1142.71 1350.5,1142.5C 1353.52,1143.53 1356.18,1142.86 1358.5,1140.5C 1401.15,1134.77 1443.15,1126.1 1484.5,1114.5C 1473.46,1197.97 1449.46,1277.63 1412.5,1353.5C 1356.75,1365.45 1300.42,1373.12 1243.5,1376.5C 1259.55,1316.89 1272.38,1256.56 1282,1195.5C 1294.16,1180.53 1304.82,1164.53 1314,1147.5C 1317.24,1145.74 1320.74,1145.07 1324.5,1145.5 Z"/></g>
<g><path style="opacity:1" fill="#203789" d="M 1072.5,1103.5 C 1073.74,1103.81 1073.74,1104.31 1072.5,1105C 1066.16,1109.5 1059.5,1113.5 1052.5,1117C 1053.5,1117.33 1054.5,1117.67 1055.5,1118C 1066.67,1128.5 1077.83,1139 1089,1149.5C 1089.98,1139.86 1090.65,1130.19 1091,1120.5C 1091.5,1127.16 1091.67,1133.83 1091.5,1140.5C 1091.5,1146.5 1091.5,1152.5 1091.5,1158.5C 1079.83,1158.87 1068.17,1159.2 1056.5,1159.5C 1053.36,1158.68 1050.03,1158.18 1046.5,1158C 1036.57,1148.23 1026.24,1139.06 1015.5,1130.5C 1035.38,1123.4 1054.38,1114.4 1072.5,1103.5 Z"/></g>
<g><path style="opacity:1" fill="#1e388e" d="M 1015.5,1130.5 C 1026.24,1139.06 1036.57,1148.23 1046.5,1158C 1050.03,1158.18 1053.36,1158.68 1056.5,1159.5C 1012.18,1161.29 967.85,1161.79 923.5,1161C 927.487,1154.7 931.487,1148.37 935.5,1142C 962.818,1142.3 989.484,1138.47 1015.5,1130.5 Z"/></g>
<g><path style="opacity:1" fill="#5156a0" d="M 1358.5,1140.5 C 1356.18,1142.86 1353.52,1143.53 1350.5,1142.5C 1346.69,1142.71 1343.19,1143.71 1340,1145.5C 1337.29,1144.07 1334.79,1144.41 1332.5,1146.5C 1329.92,1145.61 1327.25,1145.27 1324.5,1145.5C 1335.65,1143.48 1346.98,1141.81 1358.5,1140.5 Z"/></g>
<g><path style="opacity:1" fill="#20388e" d="M 652.5,1144.5 C 653.097,1143.86 653.93,1143.53 655,1143.5C 668.7,1145.6 682.367,1147.6 696,1149.5C 698.863,1169.54 701.53,1189.54 704,1209.5C 684.685,1189.37 667.519,1167.71 652.5,1144.5 Z"/></g>
<g><path style="opacity:1" fill="#1b378e" d="M 700.5,1149.5 C 757.948,1156.91 815.614,1162.08 873.5,1165C 853.04,1202.09 832.706,1239.25 812.5,1276.5C 811.667,1276.83 810.833,1277.17 810,1277.5C 772.875,1263.78 739.875,1243.44 711,1216.5C 706.246,1194.39 702.746,1172.06 700.5,1149.5 Z"/></g>
<g><path style="opacity:1" fill="#efe3d2" d="M 1235.5,1149.5 C 1238.83,1149.5 1242.17,1149.5 1245.5,1149.5C 1244.86,1150.48 1244.19,1151.48 1243.5,1152.5C 1241.03,1153.17 1238.7,1153.83 1236.5,1154.5C 1220.49,1155.37 1204.49,1156.37 1188.5,1157.5C 1189.6,1155.91 1188.93,1155.07 1186.5,1155C 1183.52,1154.5 1180.52,1154.34 1177.5,1154.5C 1179.26,1153.54 1181.26,1153.21 1183.5,1153.5C 1200.85,1152.32 1218.18,1150.99 1235.5,1149.5 Z"/></g>
<g><path style="opacity:1" fill="#7d7db2" d="M 1096.5,1134.5 C 1096.5,1142.17 1096.5,1149.83 1096.5,1157.5C 1098.83,1157.5 1101.17,1157.5 1103.5,1157.5C 1101.05,1158.47 1098.39,1158.81 1095.5,1158.5C 1095.17,1150.32 1095.51,1142.32 1096.5,1134.5 Z"/></g>
<g><path style="opacity:1" fill="#45437c" d="M 1236.5,1154.5 C 1238.29,1154.21 1239.95,1154.55 1241.5,1155.5C 1233.53,1166.46 1224.87,1176.8 1215.5,1186.5C 1205.73,1177.9 1196.06,1169.07 1186.5,1160C 1195.81,1159.17 1195.81,1158.67 1186.5,1158.5C 1186.84,1157.66 1187.51,1157.33 1188.5,1157.5C 1204.49,1156.37 1220.49,1155.37 1236.5,1154.5 Z"/></g>
<g><path style="opacity:1" fill="#343e82" d="M 1186.5,1158.5 C 1195.81,1158.67 1195.81,1159.17 1186.5,1160C 1196.06,1169.07 1205.73,1177.9 1215.5,1186.5C 1206.47,1196.53 1196.8,1205.87 1186.5,1214.5C 1168.4,1197.56 1150.4,1180.4 1132.5,1163C 1136.83,1162.67 1141.17,1162.33 1145.5,1162C 1142.85,1161.5 1140.19,1161.34 1137.5,1161.5C 1153.62,1159.44 1169.95,1158.44 1186.5,1158.5 Z"/></g>
<g><path style="opacity:1" fill="#a5a4ce" d="M 1072.5,1163.5 C 1078.64,1162.51 1084.98,1162.18 1091.5,1162.5C 1091.78,1164.41 1091.45,1166.08 1090.5,1167.5C 1090.5,1166.17 1090.5,1164.83 1090.5,1163.5C 1084.5,1163.5 1078.5,1163.5 1072.5,1163.5 Z"/></g>
<g><path style="opacity:1" fill="#273d88" d="M 1112.5,1162.5 C 1120.65,1161.51 1128.98,1161.17 1137.5,1161.5C 1140.19,1161.34 1142.85,1161.5 1145.5,1162C 1141.17,1162.33 1136.83,1162.67 1132.5,1163C 1150.4,1180.4 1168.4,1197.56 1186.5,1214.5C 1182.17,1217.83 1177.83,1221.17 1173.5,1224.5C 1173.44,1223.96 1173.11,1223.62 1172.5,1223.5C 1171.5,1224.17 1170.5,1224.83 1169.5,1225.5C 1148.32,1205.15 1126.98,1184.98 1105.5,1165C 1112.47,1164 1119.47,1163.34 1126.5,1163C 1121.85,1162.5 1117.18,1162.33 1112.5,1162.5 Z"/></g>
<g><path style="opacity:1" fill="#1a388e" d="M 1072.5,1163.5 C 1078.5,1163.5 1084.5,1163.5 1090.5,1163.5C 1090.5,1164.83 1090.5,1166.17 1090.5,1167.5C 1089.22,1202.88 1087.22,1238.21 1084.5,1273.5C 1025.22,1294.53 964.223,1302.19 901.5,1296.5C 898.972,1266.19 897.138,1235.86 896,1205.5C 904.292,1192.42 912.459,1179.25 920.5,1166C 971.177,1165.69 1021.84,1164.86 1072.5,1163.5 Z"/></g>
<g><path style="opacity:1" fill="#1d3889" d="M 1112.5,1162.5 C 1117.18,1162.33 1121.85,1162.5 1126.5,1163C 1119.47,1163.34 1112.47,1164 1105.5,1165C 1126.98,1184.98 1148.32,1205.15 1169.5,1225.5C 1170.5,1224.83 1171.5,1224.17 1172.5,1223.5C 1173.11,1223.62 1173.44,1223.96 1173.5,1224.5C 1163.02,1232.58 1152.02,1239.91 1140.5,1246.5C 1125.56,1232.73 1110.73,1218.73 1096,1204.5C 1095.58,1205.76 1094.75,1206.42 1093.5,1206.5C 1094.05,1191.83 1094.72,1177.16 1095.5,1162.5C 1101.17,1162.5 1106.83,1162.5 1112.5,1162.5 Z"/></g>
<g><path style="opacity:1" fill="#1f388f" d="M 1140.5,1246.5 C 1124.38,1256.27 1107.38,1264.27 1089.5,1270.5C 1090.08,1249.07 1091.42,1227.73 1093.5,1206.5C 1094.75,1206.42 1095.58,1205.76 1096,1204.5C 1110.73,1218.73 1125.56,1232.73 1140.5,1246.5 Z"/></g>
<g><path style="opacity:1" fill="#1b388e" d="M 1275.5,1203.5 C 1269.35,1245.98 1261.18,1288.32 1251,1330.5C 1246.36,1346.07 1242.19,1361.73 1238.5,1377.5C 1185.28,1382.2 1131.94,1385.2 1078.5,1386.5C 1079.99,1367.23 1081.99,1348.07 1084.5,1329C 1160.9,1306.16 1224.57,1264.33 1275.5,1203.5 Z"/></g>
<g><path style="opacity:1" fill="#1f388f" d="M 890.5,1214.5 C 893.206,1241.29 895.206,1268.29 896.5,1295.5C 879.268,1294.32 862.268,1291.66 845.5,1287.5C 860.762,1263.31 875.762,1238.97 890.5,1214.5 Z"/></g>
<g><path style="opacity:1" fill="#1c378e" d="M 716.5,1253.5 C 741.503,1273.47 768.169,1291.14 796.5,1306.5C 783.5,1330.5 770.5,1354.5 757.5,1378.5C 753.753,1379.6 750.086,1379.27 746.5,1377.5C 734.58,1336.66 724.58,1295.33 716.5,1253.5 Z"/></g>
<g><path style="opacity:1" fill="#1b378e" d="M 443.5,1313.5 C 460.928,1322.2 478.928,1329.7 497.5,1336C 520.611,1343.39 543.944,1349.89 567.5,1355.5C 599.35,1424.07 641.684,1485.24 694.5,1539C 677.879,1536.96 661.212,1534.63 644.5,1532C 571.562,1482.73 511.062,1421.23 463,1347.5C 456.224,1336.27 449.724,1324.94 443.5,1313.5 Z"/></g>
<g><path style="opacity:1" fill="#1d388f" d="M 905.5,1385.5 C 905.5,1386.5 905.5,1387.5 905.5,1388.5C 900.167,1388.5 894.833,1388.5 889.5,1388.5C 859.816,1387.46 830.149,1385.96 800.5,1384C 796.044,1383.74 791.711,1382.9 787.5,1381.5C 799.779,1360.59 812.779,1340.25 826.5,1320.5C 850.442,1329.72 875.108,1336.22 900.5,1340C 902.742,1355.06 904.409,1370.22 905.5,1385.5 Z"/></g>
<g><path style="opacity:1" fill="#1c388e" d="M 1524.5,1323.5 C 1525.53,1323.9 1525.69,1324.56 1525,1325.5C 1473.39,1412.23 1405.22,1483.07 1320.5,1538C 1309.11,1539.35 1297.78,1540.69 1286.5,1542C 1325.4,1503.45 1358.57,1460.62 1386,1413.5C 1396.47,1395.4 1406.3,1376.9 1415.5,1358C 1453.12,1350.18 1489.45,1338.68 1524.5,1323.5 Z"/></g>
<g><path style="opacity:1" fill="#1d388f" d="M 1074.5,1331.5 C 1076.17,1331.5 1077.83,1331.5 1079.5,1331.5C 1078.18,1350.12 1076.18,1368.62 1073.5,1387C 1019.19,1389.13 964.855,1389.96 910.5,1389.5C 908.528,1373.53 906.861,1357.53 905.5,1341.5C 962.666,1350.1 1019,1346.77 1074.5,1331.5 Z"/></g>
<g><path style="opacity:1" fill="#1b378e" d="M 573.5,1356.5 C 629.727,1367.88 686.393,1376.54 743.5,1382.5C 745.208,1387.77 746.375,1393.11 747,1398.5C 724.284,1438.6 703.118,1479.6 683.5,1521.5C 638.122,1472.43 601.455,1417.43 573.5,1356.5 Z"/></g>
<g><path style="opacity:1" fill="#1b388e" d="M 1406.5,1359.5 C 1407.68,1359.28 1408.68,1359.61 1409.5,1360.5C 1376.28,1429.11 1332.61,1490.28 1278.5,1544C 1243.36,1548.39 1208.19,1552.55 1173,1556.5C 1171.83,1556.17 1170.67,1555.83 1169.5,1555.5C 1192.58,1517 1211.08,1476.33 1225,1433.5C 1230.51,1416.31 1236.01,1399.14 1241.5,1382C 1297.06,1377.51 1352.06,1370.01 1406.5,1359.5 Z"/></g>
<g><path style="opacity:1" fill="#1a388f" d="M 1224.5,1382.5 C 1228.55,1382.18 1232.55,1382.51 1236.5,1383.5C 1222.84,1431.8 1205.01,1478.47 1183,1523.5C 1176.88,1534.91 1170.38,1546.08 1163.5,1557C 1125.6,1561.03 1087.6,1563.03 1049.5,1563C 1061.97,1506.4 1071.31,1449.24 1077.5,1391.5C 1126.72,1389.56 1175.72,1386.56 1224.5,1382.5 Z"/></g>
<g><path style="opacity:1" fill="#31368c" d="M 748.5,1383.5 C 750.604,1383.2 752.604,1383.53 754.5,1384.5C 751.038,1392.7 749.038,1392.37 748.5,1383.5 Z"/></g>
<g><path style="opacity:1" fill="#1b388f" d="M 784.5,1386.5 C 825.067,1390.43 865.734,1392.76 906.5,1393.5C 912.851,1450.65 922.184,1507.32 934.5,1563.5C 897.721,1562.66 861.055,1560.16 824.5,1556C 821.993,1555.91 819.826,1555.07 818,1553.5C 793.293,1512.37 774.627,1468.7 762,1422.5C 769.761,1410.64 777.261,1398.64 784.5,1386.5 Z"/></g>
<g><path style="opacity:1" fill="#b4b6dd" d="M 905.5,1385.5 C 906.434,1386.57 906.768,1387.9 906.5,1389.5C 900.642,1389.82 894.975,1389.49 889.5,1388.5C 894.833,1388.5 900.167,1388.5 905.5,1388.5C 905.5,1387.5 905.5,1386.5 905.5,1385.5 Z"/></g>
<g><path style="opacity:1" fill="#666faf" d="M 1051.5,1392.5 C 1058.65,1391.51 1065.98,1391.18 1073.5,1391.5C 1073.77,1393.1 1073.43,1394.43 1072.5,1395.5C 1072.5,1394.5 1072.5,1393.5 1072.5,1392.5C 1065.5,1392.5 1058.5,1392.5 1051.5,1392.5 Z"/></g>
<g><path style="opacity:1" fill="#1a388f" d="M 1051.5,1392.5 C 1058.5,1392.5 1065.5,1392.5 1072.5,1392.5C 1072.5,1393.5 1072.5,1394.5 1072.5,1395.5C 1066.83,1452.16 1057.5,1508.16 1044.5,1563.5C 1009.53,1565.8 974.526,1566.13 939.5,1564.5C 926.609,1508.15 917.276,1451.15 911.5,1393.5C 958.171,1393.64 1004.84,1393.3 1051.5,1392.5 Z"/></g>
<g><path style="opacity:1" fill="#1c388e" d="M 756.5,1430.5 C 757.75,1430.58 758.583,1431.24 759,1432.5C 772.984,1474.96 791.151,1515.46 813.5,1554C 775.98,1551.02 738.647,1546.35 701.5,1540C 698.317,1536.98 695.317,1533.82 692.5,1530.5C 696.48,1526.53 699.98,1522.2 703,1517.5C 721.482,1488.86 739.315,1459.86 756.5,1430.5 Z"/></g>
<g><path style="opacity:1" fill="#25388e" d="M 654.5,1538.5 C 654.735,1537.9 655.235,1537.57 656,1537.5C 670.833,1540.07 685.666,1542.57 700.5,1545C 718.899,1562.02 738.566,1577.36 759.5,1591C 722.894,1576.7 687.894,1559.2 654.5,1538.5 Z"/></g>
<g><path style="opacity:1" fill="#2b388e" d="M 1307.5,1543.5 C 1309.34,1543.64 1309.67,1544.31 1308.5,1545.5C 1286.37,1558.4 1263.71,1569.9 1240.5,1580C 1254.41,1570.09 1267.74,1559.43 1280.5,1548C 1289.72,1547.02 1298.72,1545.52 1307.5,1543.5 Z"/></g>
<g><path style="opacity:1" fill="#1e388e" d="M 708.5,1545.5 C 744.374,1551.06 780.374,1555.89 816.5,1560C 834.21,1586.04 856.21,1607.71 882.5,1625C 849.483,1620 817.15,1612 785.5,1601C 757.226,1585.89 731.559,1567.39 708.5,1545.5 Z"/></g>
<g><path style="opacity:1" fill="#1f388e" d="M 1264.5,1549.5 C 1266.86,1549.34 1269.19,1549.5 1271.5,1550C 1254.3,1565.21 1235.96,1578.87 1216.5,1591C 1179.99,1604.95 1142.65,1615.62 1104.5,1623C 1128.83,1606.67 1149.17,1586.33 1165.5,1562C 1198.65,1558.06 1231.65,1553.9 1264.5,1549.5 Z"/></g>
<g><path style="opacity:1" fill="#9d9ecd" d="M 1153.5,1562.5 C 1155.69,1561.2 1158.03,1561.2 1160.5,1562.5C 1160.38,1563.11 1160.04,1563.44 1159.5,1563.5C 1157.74,1562.54 1155.74,1562.21 1153.5,1562.5 Z"/></g>
<g><path style="opacity:1" fill="#1d388f" d="M 822.5,1561.5 C 823.449,1560.85 824.615,1560.51 826,1560.5C 862.814,1563.83 899.648,1566.83 936.5,1569.5C 941.697,1591.59 949.364,1612.76 959.5,1633C 938.053,1633.03 916.72,1631.36 895.5,1628C 876.01,1616.86 858.51,1603.03 843,1586.5C 835.924,1578.27 829.091,1569.93 822.5,1561.5 Z"/></g>
<g><path style="opacity:1" fill="#1d388e" d="M 1153.5,1562.5 C 1155.74,1562.21 1157.74,1562.54 1159.5,1563.5C 1142.23,1587.94 1120.89,1608.1 1095.5,1624C 1089.93,1625.65 1084.26,1626.99 1078.5,1628C 1060.87,1630.2 1043.21,1631.53 1025.5,1632C 1035.12,1611.64 1042.45,1590.47 1047.5,1568.5C 1082.89,1567.43 1118.22,1565.43 1153.5,1562.5 Z"/></g>
<g><path style="opacity:1" fill="#9296ca" d="M 956.5,1569.5 C 951.305,1569.18 946.305,1569.51 941.5,1570.5C 940.957,1570.44 940.624,1570.11 940.5,1569.5C 945.986,1568.19 951.32,1568.19 956.5,1569.5 Z"/></g>
<g><path style="opacity:1" fill="#bcbde0" d="M 1025.5,1569.5 C 1031.31,1568.51 1037.31,1568.18 1043.5,1568.5C 1043.74,1569.79 1043.4,1570.79 1042.5,1571.5C 1037.26,1569.55 1031.6,1568.88 1025.5,1569.5 Z"/></g>
<g><path style="opacity:1" fill="#1b378e" d="M 956.5,1569.5 C 979.5,1569.5 1002.5,1569.5 1025.5,1569.5C 1031.6,1568.88 1037.26,1569.55 1042.5,1571.5C 1037.65,1593.09 1029.98,1613.59 1019.5,1633C 1001.18,1634.67 982.849,1634.83 964.5,1633.5C 954.253,1613.42 946.586,1592.42 941.5,1570.5C 946.305,1569.51 951.305,1569.18 956.5,1569.5 Z"/></g>
<g><path style="opacity:1" fill="#20388e" d="M 507.5,1584.5 C 527.402,1581.71 543.235,1588.37 555,1604.5C 561.685,1615.37 562.185,1626.37 556.5,1637.5C 551.259,1635.3 546.092,1632.96 541,1630.5C 543.772,1609.6 534.606,1600.1 513.5,1602C 501.142,1609.03 492.308,1619.2 487,1632.5C 484.471,1643.26 487.637,1651.76 496.5,1658C 506.247,1662.17 515.081,1660.67 523,1653.5C 526.833,1658.5 530.667,1663.5 534.5,1668.5C 514.328,1683.19 495.495,1681.52 478,1663.5C 465.106,1644.34 465.44,1625.34 479,1606.5C 486.662,1596.66 496.162,1589.32 507.5,1584.5 Z"/></g>
<g><path style="opacity:1" fill="#1f378e" d="M 1473.5,1598.5 C 1478.58,1598.25 1483.58,1598.75 1488.5,1600C 1491.73,1601.11 1494.39,1602.94 1496.5,1605.5C 1492.98,1609.19 1489.65,1613.02 1486.5,1617C 1482.44,1615.33 1478.1,1614.67 1473.5,1615C 1462.9,1620.39 1460.73,1628.22 1467,1638.5C 1470.13,1642.63 1473.63,1646.47 1477.5,1650C 1487.38,1656.15 1494.88,1653.98 1500,1643.5C 1500.88,1639.47 1500.05,1635.8 1497.5,1632.5C 1502.59,1629.69 1507.59,1626.69 1512.5,1623.5C 1519.94,1638.38 1517.27,1651.22 1504.5,1662C 1492.5,1670.79 1479.83,1671.79 1466.5,1665C 1457.72,1657.93 1451.56,1649.1 1448,1638.5C 1445.78,1625.77 1449.62,1615.27 1459.5,1607C 1464.06,1603.89 1468.73,1601.06 1473.5,1598.5 Z"/></g>
<g><path style="opacity:1" fill="#23378e" d="M 1416.5,1610.5 C 1420.33,1614.28 1423.33,1618.78 1425.5,1624C 1425.36,1624.77 1425.02,1625.44 1424.5,1626C 1420.04,1628.3 1415.7,1630.8 1411.5,1633.5C 1408.27,1629.38 1405.27,1625.04 1402.5,1620.5C 1407.2,1617.16 1411.86,1613.82 1416.5,1610.5 Z"/></g>
<g><path style="opacity:1" fill="#1f378e" d="M 576.5,1620.5 C 582.306,1622.63 587.639,1625.63 592.5,1629.5C 587.167,1638.83 581.833,1648.17 576.5,1657.5C 588.132,1655.29 598.299,1658.29 607,1666.5C 611.004,1671.56 612.338,1677.22 611,1683.5C 603.236,1700.1 594.403,1716.1 584.5,1731.5C 579.666,1728.25 574.666,1725.25 569.5,1722.5C 577.2,1709.29 584.7,1695.96 592,1682.5C 593.572,1672.89 589.406,1667.89 579.5,1667.5C 577.035,1667.48 574.702,1667.98 572.5,1669C 568.578,1672.25 565.412,1676.08 563,1680.5C 558.02,1690.46 552.52,1700.13 546.5,1709.5C 541.334,1706.75 536.334,1703.75 531.5,1700.5C 546.621,1673.76 561.621,1647.09 576.5,1620.5 Z"/></g>
<g><path style="opacity:1" fill="#1f378e" d="M 1429.5,1632.5 C 1430.5,1632.41 1431.33,1632.75 1432,1633.5C 1442.99,1651.47 1453.99,1669.47 1465,1687.5C 1465.68,1688.78 1465.52,1689.95 1464.5,1691C 1460.49,1694.01 1456.16,1696.51 1451.5,1698.5C 1439.5,1680.5 1428,1662.17 1417,1643.5C 1416.25,1642.36 1416.42,1641.36 1417.5,1640.5C 1421.81,1638.17 1425.81,1635.5 1429.5,1632.5 Z"/></g>
<g><path style="opacity:1" fill="#1f378e" d="M 1389.5,1656.5 C 1396.58,1655.8 1402.75,1657.8 1408,1662.5C 1417.42,1677.67 1426.58,1693 1435.5,1708.5C 1430.46,1712.18 1425.13,1715.02 1419.5,1717C 1412.38,1703.92 1404.88,1691.09 1397,1678.5C 1388.08,1671.1 1381.08,1672.76 1376,1683.5C 1375.6,1690.32 1377.27,1696.65 1381,1702.5C 1386.3,1711.96 1391.8,1721.3 1397.5,1730.5C 1392.33,1733.25 1387.33,1736.25 1382.5,1739.5C 1370.68,1720.53 1359.34,1701.2 1348.5,1681.5C 1352.77,1678.45 1357.27,1675.78 1362,1673.5C 1363.9,1675.63 1365.57,1677.96 1367,1680.5C 1370.25,1668.42 1377.75,1660.42 1389.5,1656.5 Z"/></g>
<g><path style="opacity:1" fill="#24378e" d="M 1322.5,1664.5 C 1323.38,1664.37 1324.04,1664.7 1324.5,1665.5C 1326.71,1670.08 1329.04,1674.58 1331.5,1679C 1326.09,1681.45 1320.93,1684.29 1316,1687.5C 1313.23,1682.96 1310.73,1678.29 1308.5,1673.5C 1308.98,1672.52 1309.64,1671.69 1310.5,1671C 1314.72,1669.06 1318.72,1666.89 1322.5,1664.5 Z"/></g>
<g><path style="opacity:1" fill="#1f378e" d="M 1294.5,1676.5 C 1308.12,1704.69 1320.79,1733.35 1332.5,1762.5C 1327.42,1764.2 1322.42,1766.2 1317.5,1768.5C 1315.18,1765.87 1313.35,1762.87 1312,1759.5C 1301.35,1734.55 1290.52,1709.72 1279.5,1685C 1279.64,1684.23 1279.98,1683.56 1280.5,1683C 1285.38,1681.06 1290.04,1678.89 1294.5,1676.5 Z"/></g>
<g><path style="opacity:1" fill="#20388e" d="M 632.5,1685.5 C 644.03,1685.51 654.363,1689.01 663.5,1696C 672.186,1701.87 674.686,1709.7 671,1719.5C 665.606,1731.29 659.939,1742.96 654,1754.5C 653.167,1758.5 652.333,1762.5 651.5,1766.5C 647.112,1763.64 642.446,1761.31 637.5,1759.5C 636.694,1756.62 636.36,1753.96 636.5,1751.5C 623.024,1755.29 612.19,1751.62 604,1740.5C 598.891,1727.88 602.391,1718.38 614.5,1712C 618.167,1711.33 621.833,1711.33 625.5,1712C 633.419,1714.14 641.419,1715.97 649.5,1717.5C 650.772,1717.43 651.938,1717.1 653,1716.5C 656.074,1710.4 654.574,1705.9 648.5,1703C 642.578,1699.29 637.078,1699.79 632,1704.5C 627.821,1701.74 623.821,1698.74 620,1695.5C 619.837,1693.61 620.671,1692.11 622.5,1691C 625.767,1688.87 629.1,1687.04 632.5,1685.5 Z"/></g>
<g><path style="opacity:1" fill="#20378e" d="M 1333.5,1687.5 C 1334.5,1687.41 1335.33,1687.75 1336,1688.5C 1346.04,1707.71 1355.87,1727.04 1365.5,1746.5C 1360.78,1749.86 1355.78,1752.86 1350.5,1755.5C 1339.66,1735.81 1329.32,1715.81 1319.5,1695.5C 1324.22,1692.81 1328.89,1690.14 1333.5,1687.5 Z"/></g>
<g><path style="opacity:1" fill="#1e378e" d="M 1243.5,1696.5 C 1259.93,1694.08 1272.6,1699.74 1281.5,1713.5C 1276.25,1716.71 1271.08,1720.04 1266,1723.5C 1257.29,1712.33 1246.79,1710.5 1234.5,1718C 1227.61,1724 1225.11,1731.5 1227,1740.5C 1228.07,1750.64 1231.4,1759.97 1237,1768.5C 1245.59,1777.41 1255.42,1778.91 1266.5,1773C 1273.22,1767 1275.89,1759.5 1274.5,1750.5C 1280.83,1750.5 1287.17,1750.5 1293.5,1750.5C 1294.05,1773.58 1283.05,1787.41 1260.5,1792C 1239.59,1795.13 1224.42,1787.29 1215,1768.5C 1208.32,1755.13 1206.32,1741.13 1209,1726.5C 1215.39,1710.61 1226.89,1700.61 1243.5,1696.5 Z"/></g>
<g><path style="opacity:1" fill="#20388e" d="M 689.5,1708.5 C 694.645,1709.62 699.645,1711.29 704.5,1713.5C 704.833,1713.83 705.167,1714.17 705.5,1714.5C 703.815,1717.23 703.148,1719.9 703.5,1722.5C 718.629,1715.71 731.129,1719.04 741,1732.5C 742.434,1736.41 742.767,1740.41 742,1744.5C 736.164,1760.52 730.331,1776.52 724.5,1792.5C 717.982,1791.89 712.315,1789.56 707.5,1785.5C 712.763,1771.54 717.93,1757.54 723,1743.5C 724.26,1738.19 722.426,1734.35 717.5,1732C 710.126,1728.89 703.959,1730.39 699,1736.5C 693.353,1749.62 687.853,1762.79 682.5,1776C 678.302,1776.05 674.302,1775.05 670.5,1773C 668.522,1772.52 667.189,1771.35 666.5,1769.5C 674.365,1749.24 682.032,1728.9 689.5,1708.5 Z"/></g>
<g><path style="opacity:1" fill="#f4f4f7" d="M 623.5,1724.5 C 631.648,1724.87 639.648,1726.2 647.5,1728.5C 645.374,1731.92 643.374,1735.42 641.5,1739C 635.746,1743.23 629.746,1743.56 623.5,1740C 618.303,1734.73 618.303,1729.56 623.5,1724.5 Z"/></g>
<g><path style="opacity:1" fill="#7178b5" d="M 909.5,1737.5 C 911.833,1737.5 914.167,1737.5 916.5,1737.5C 916.784,1739.41 916.451,1741.08 915.5,1742.5C 915.5,1741.17 915.5,1739.83 915.5,1738.5C 913.265,1738.79 911.265,1738.46 909.5,1737.5 Z"/></g>
<g><path style="opacity:1" fill="#1f388e" d="M 767.5,1737.5 C 781.626,1735.14 792.126,1740.14 799,1752.5C 799.869,1749.67 801.036,1747 802.5,1744.5C 807.441,1746.09 812.441,1747.42 817.5,1748.5C 811.994,1773.87 805.16,1798.87 797,1823.5C 793.438,1829.36 788.272,1832.86 781.5,1834C 769.079,1834.78 757.412,1832.11 746.5,1826C 738.347,1820.19 735.347,1812.35 737.5,1802.5C 743.875,1804.63 750.208,1806.96 756.5,1809.5C 757.153,1814.32 759.82,1817.49 764.5,1819C 769.198,1820.79 773.864,1820.79 778.5,1819C 780.049,1817.79 781.215,1816.29 782,1814.5C 783.704,1809.37 784.87,1804.37 785.5,1799.5C 771.955,1808.7 759.788,1807.04 749,1794.5C 740.763,1775.45 743.596,1758.29 757.5,1743C 760.767,1740.87 764.1,1739.04 767.5,1737.5 Z"/></g>
<g><path style="opacity:1" fill="#1f388e" d="M 909.5,1737.5 C 911.265,1738.46 913.265,1738.79 915.5,1738.5C 915.5,1739.83 915.5,1741.17 915.5,1742.5C 913.466,1762.17 911.299,1781.84 909,1801.5C 904.595,1823.97 891.095,1832.8 868.5,1828C 853.595,1822.38 847.262,1811.54 849.5,1795.5C 855.5,1795.5 861.5,1795.5 867.5,1795.5C 865.392,1808.53 870.726,1814.03 883.5,1812C 884.931,1811.53 886.097,1810.7 887,1809.5C 888.308,1806.27 889.308,1802.94 890,1799.5C 892.419,1778.48 894.919,1757.48 897.5,1736.5C 901.519,1736.65 905.519,1736.98 909.5,1737.5 Z"/></g>
<g><path style="opacity:1" fill="#293b90" d="M 935.5,1757.5 C 934.791,1756.6 933.791,1756.26 932.5,1756.5C 932.5,1754.5 932.5,1752.5 932.5,1750.5C 932.5,1747.17 932.5,1743.83 932.5,1740.5C 938.516,1740.59 944.516,1740.93 950.5,1741.5C 950.365,1747.18 950.032,1752.85 949.5,1758.5C 944.819,1758.33 940.152,1758 935.5,1757.5 Z"/></g>
<g><path style="opacity:1" fill="#20388e" d="M 1114.5,1835.5 C 1114.5,1834.17 1114.5,1832.83 1114.5,1831.5C 1116.1,1831.77 1117.43,1831.43 1118.5,1830.5C 1123.84,1830.33 1129.18,1830.5 1134.5,1831C 1136.1,1834.3 1138.76,1835.8 1142.5,1835.5C 1146.56,1834.65 1150.56,1833.48 1154.5,1832C 1156.05,1830.79 1157.22,1829.29 1158,1827.5C 1158.99,1820.92 1158.16,1814.59 1155.5,1808.5C 1149.18,1820.79 1139.18,1825.29 1125.5,1822C 1112.63,1816.46 1105.46,1806.62 1104,1792.5C 1100.47,1776.06 1105.97,1763.89 1120.5,1756C 1130.81,1752.68 1139.98,1754.51 1148,1761.5C 1147.68,1758.25 1147.52,1754.92 1147.5,1751.5C 1152.78,1750.44 1158.11,1749.78 1163.5,1749.5C 1167.25,1769.84 1171.08,1790.17 1175,1810.5C 1175.67,1816.5 1175.67,1822.5 1175,1828.5C 1173.03,1836.47 1168.2,1841.97 1160.5,1845C 1148.3,1849.79 1135.96,1850.46 1123.5,1847C 1118.93,1844.36 1115.93,1840.52 1114.5,1835.5 Z"/></g>
<g><path style="opacity:1" fill="#f7f7f8" d="M 774.5,1752.5 C 786.166,1750.64 792.5,1755.48 793.5,1767C 794.395,1777.2 790.728,1785.2 782.5,1791C 770.147,1794.16 763.481,1789.33 762.5,1776.5C 762.323,1766.19 766.323,1758.19 774.5,1752.5 Z"/></g>
<g><path style="opacity:1" fill="#8488c1" d="M 932.5,1750.5 C 932.5,1752.5 932.5,1754.5 932.5,1756.5C 933.791,1756.26 934.791,1756.6 935.5,1757.5C 934.167,1757.5 932.833,1757.5 931.5,1757.5C 931.198,1754.94 931.532,1752.61 932.5,1750.5 Z"/></g>
<g><path style="opacity:1" fill="#21388f" d="M 1095.5,1816.5 C 1095.5,1820.83 1095.5,1825.17 1095.5,1829.5C 1092.61,1829.19 1089.95,1829.53 1087.5,1830.5C 1084.5,1830.5 1081.5,1830.5 1078.5,1830.5C 1077.68,1814.76 1076.18,1799.09 1074,1783.5C 1069.7,1776.3 1063.86,1774.8 1056.5,1779C 1054.29,1780.87 1052.46,1783.04 1051,1785.5C 1050.5,1801.53 1051,1817.53 1052.5,1833.5C 1046.77,1833.21 1041.1,1833.55 1035.5,1834.5C 1034.68,1831.55 1034.18,1828.55 1034,1825.5C 1032.73,1806.12 1031.23,1786.79 1029.5,1767.5C 1035.13,1766.5 1040.79,1766.17 1046.5,1766.5C 1046.34,1769.52 1046.5,1772.52 1047,1775.5C 1055.15,1764.18 1065.98,1760.35 1079.5,1764C 1087.23,1767.28 1091.73,1773.11 1093,1781.5C 1094.17,1793.15 1095,1804.81 1095.5,1816.5 Z"/></g>
<g><path style="opacity:1" fill="#23398f" d="M 930.5,1766.5 C 936.5,1766.5 942.5,1766.5 948.5,1766.5C 946.946,1789.15 945.612,1811.82 944.5,1834.5C 938.149,1834.44 931.815,1834.11 925.5,1833.5C 927.442,1811.19 929.109,1788.86 930.5,1766.5 Z"/></g>
<g><path style="opacity:1" fill="#f7f7f8" d="M 1130.5,1767.5 C 1142.62,1766.12 1149.79,1771.45 1152,1783.5C 1153.73,1791.13 1152.23,1797.96 1147.5,1804C 1134.52,1810.59 1126.35,1806.76 1123,1792.5C 1120.37,1785.13 1121.04,1778.13 1125,1771.5C 1126.81,1770.02 1128.65,1768.69 1130.5,1767.5 Z"/></g>
<g><path style="opacity:1" fill="#20388e" d="M 1020.5,1834.5 C 1015.02,1835.49 1009.36,1835.82 1003.5,1835.5C 1003.2,1828.59 1000.86,1827.43 996.5,1832C 986.102,1837.96 975.769,1837.96 965.5,1832C 959.312,1826.1 957.146,1818.93 959,1810.5C 961.67,1803.16 966.837,1798.66 974.5,1797C 982.857,1795.41 991.19,1793.75 999.5,1792C 1002.15,1788.51 1001.82,1785.18 998.5,1782C 993.256,1779.34 987.922,1779.01 982.5,1781C 976.476,1788.28 969.476,1789.11 961.5,1783.5C 964.063,1774.77 969.729,1769.27 978.5,1767C 987.22,1766.16 995.887,1766.49 1004.5,1768C 1010.84,1769.67 1015.34,1773.51 1018,1779.5C 1018.25,1795.17 1018.25,1810.84 1018,1826.5C 1018.84,1829.2 1019.67,1831.87 1020.5,1834.5 Z"/></g>
<g><path style="opacity:1" fill="#f5f5f8" d="M 998.5,1803.5 C 1002.67,1817.86 997.005,1824.36 981.5,1823C 976.165,1819.35 975.165,1814.68 978.5,1809C 985.172,1806.84 991.838,1805.01 998.5,1803.5 Z"/></g>
<g><path style="opacity:1" fill="#8589bf" d="M 1095.5,1816.5 C 1096.49,1820.97 1096.82,1825.64 1096.5,1830.5C 1093.5,1830.5 1090.5,1830.5 1087.5,1830.5C 1089.95,1829.53 1092.61,1829.19 1095.5,1829.5C 1095.5,1825.17 1095.5,1820.83 1095.5,1816.5 Z"/></g>
<g><path style="opacity:1" fill="#a2a4d2" d="M 1118.5,1830.5 C 1117.43,1831.43 1116.1,1831.77 1114.5,1831.5C 1114.5,1832.83 1114.5,1834.17 1114.5,1835.5C 1113.55,1834.08 1113.22,1832.41 1113.5,1830.5C 1115.17,1830.5 1116.83,1830.5 1118.5,1830.5 Z"/></g>
<g><path style="opacity:1" fill="#b4b6dd" d="M 1020.5,1834.5 C 1021.04,1834.56 1021.38,1834.89 1021.5,1835.5C 1015.35,1836.82 1009.35,1836.82 1003.5,1835.5C 1009.36,1835.82 1015.02,1835.49 1020.5,1834.5 Z"/></g>
</svg>
